<mxfile host="Electron" agent="Mozilla/5.0 (Windows NT 10.0; Win64; x64) AppleWebKit/537.36 (KHTML, like Gecko) draw.io/25.0.2 Chrome/128.0.6613.186 Electron/32.2.5 Safari/537.36" version="25.0.2">
  <diagram id="R2lEEEUBdFMjLlhIrx00" name="Page-1">
    <mxGraphModel dx="1572" dy="737" grid="1" gridSize="10" guides="1" tooltips="1" connect="1" arrows="1" fold="1" page="1" pageScale="1" pageWidth="850" pageHeight="1100" math="0" shadow="0" extFonts="Permanent Marker^https://fonts.googleapis.com/css?family=Permanent+Marker">
      <root>
        <mxCell id="0" />
        <mxCell id="1" parent="0" />
        <mxCell id="3jxKm5MUKbMZxZqrCTzL-1" value="5. Cardinalidad N:M" style="text;html=1;align=left;verticalAlign=middle;resizable=0;points=[];autosize=1;strokeColor=none;fillColor=none;strokeWidth=0;fontSize=20;fontStyle=1" parent="1" vertex="1">
          <mxGeometry x="40" y="40" width="200" height="40" as="geometry" />
        </mxCell>
        <mxCell id="3jxKm5MUKbMZxZqrCTzL-2" value="Cuando tenemos una cardinalidad N:M entre dos entidades, se crea una nueva tabla con los atributos identificativos de ambas entidades." style="text;html=1;align=left;verticalAlign=middle;resizable=0;points=[];autosize=1;strokeColor=none;fillColor=none;" parent="1" vertex="1">
          <mxGeometry x="40" y="90" width="760" height="30" as="geometry" />
        </mxCell>
        <mxCell id="3jxKm5MUKbMZxZqrCTzL-3" value="Por ejemplo,&amp;nbsp;" style="text;html=1;align=left;verticalAlign=middle;resizable=0;points=[];autosize=1;strokeColor=none;fillColor=none;" parent="1" vertex="1">
          <mxGeometry x="40" y="210" width="90" height="30" as="geometry" />
        </mxCell>
        <mxCell id="3jxKm5MUKbMZxZqrCTzL-4" value="&lt;span style=&quot;color: rgba(0, 0, 0, 0); font-family: monospace; font-size: 0px; font-weight: 400;&quot;&gt;%3CmxGraphModel%3E%3Croot%3E%3CmxCell%20id%3D%220%22%2F%3E%3CmxCell%20id%3D%221%22%20parent%3D%220%22%2F%3E%3CmxCell%20id%3D%222%22%20value%3D%22Queremos%20registrar%20empleados%20en%20nuestra%20base%20de%20datos%20su%20DNI%2C%20nombre%2C%20fecha%20%26lt%3Bspan%20style%3D%26quot%3Bbackground-color%3A%20initial%3B%26quot%3B%26gt%3By%20puesto.%20Cada%20empleado%20pertence%20a%20un%20departamento.%26lt%3B%2Fspan%26gt%3B%22%20style%3D%22text%3Bhtml%3D1%3Balign%3Dleft%3BverticalAlign%3Dmiddle%3Bresizable%3D0%3Bpoints%3D%5B%5D%3Bautosize%3D1%3BstrokeColor%3Dnone%3BfillColor%3Dnone%3BfontStyle%3D1%22%20vertex%3D%221%22%20parent%3D%221%22%3E%3CmxGeometry%20x%3D%2240%22%20y%3D%222130%22%20width%3D%22750%22%20height%3D%2230%22%20as%3D%22geometry%22%2F%3E%3C%2FmxCell%3E%3C%2Froot%3E%3C%2FmxGraphModel%3E&lt;/span&gt;" style="text;html=1;align=left;verticalAlign=middle;resizable=0;points=[];autosize=1;strokeColor=none;fillColor=none;fontStyle=1" parent="1" vertex="1">
          <mxGeometry x="40" y="320" width="20" height="30" as="geometry" />
        </mxCell>
        <mxCell id="3jxKm5MUKbMZxZqrCTzL-5" value="Empleado" style="whiteSpace=wrap;html=1;align=center;" parent="1" vertex="1">
          <mxGeometry x="107.5" y="340" width="100" height="40" as="geometry" />
        </mxCell>
        <mxCell id="3jxKm5MUKbMZxZqrCTzL-6" style="edgeStyle=orthogonalEdgeStyle;rounded=0;orthogonalLoop=1;jettySize=auto;html=1;endArrow=none;endFill=0;" parent="1" source="3jxKm5MUKbMZxZqrCTzL-7" target="3jxKm5MUKbMZxZqrCTzL-5" edge="1">
          <mxGeometry relative="1" as="geometry" />
        </mxCell>
        <mxCell id="3jxKm5MUKbMZxZqrCTzL-7" value="nombre" style="ellipse;whiteSpace=wrap;html=1;align=center;" parent="1" vertex="1">
          <mxGeometry x="107.5" y="280" width="60" height="40" as="geometry" />
        </mxCell>
        <mxCell id="3jxKm5MUKbMZxZqrCTzL-8" style="edgeStyle=orthogonalEdgeStyle;rounded=0;orthogonalLoop=1;jettySize=auto;html=1;entryX=0;entryY=0.5;entryDx=0;entryDy=0;endArrow=none;endFill=0;" parent="1" source="3jxKm5MUKbMZxZqrCTzL-9" target="3jxKm5MUKbMZxZqrCTzL-5" edge="1">
          <mxGeometry relative="1" as="geometry">
            <Array as="points">
              <mxPoint x="67.5" y="360" />
            </Array>
          </mxGeometry>
        </mxCell>
        <mxCell id="3jxKm5MUKbMZxZqrCTzL-9" value="DNI" style="ellipse;whiteSpace=wrap;html=1;align=center;fontStyle=4;" parent="1" vertex="1">
          <mxGeometry x="42.5" y="280" width="50" height="40" as="geometry" />
        </mxCell>
        <mxCell id="3jxKm5MUKbMZxZqrCTzL-10" style="edgeStyle=orthogonalEdgeStyle;rounded=0;orthogonalLoop=1;jettySize=auto;html=1;entryX=0.796;entryY=0.011;entryDx=0;entryDy=0;endArrow=none;endFill=0;entryPerimeter=0;" parent="1" source="3jxKm5MUKbMZxZqrCTzL-11" target="3jxKm5MUKbMZxZqrCTzL-5" edge="1">
          <mxGeometry relative="1" as="geometry">
            <Array as="points">
              <mxPoint x="197.5" y="300" />
              <mxPoint x="197.5" y="340" />
              <mxPoint x="187.5" y="340" />
            </Array>
          </mxGeometry>
        </mxCell>
        <mxCell id="3jxKm5MUKbMZxZqrCTzL-11" value="puesto" style="ellipse;whiteSpace=wrap;html=1;align=center;" parent="1" vertex="1">
          <mxGeometry x="177.5" y="280" width="50" height="40" as="geometry" />
        </mxCell>
        <mxCell id="3jxKm5MUKbMZxZqrCTzL-12" value="Departamento" style="whiteSpace=wrap;html=1;align=center;" parent="1" vertex="1">
          <mxGeometry x="527.5" y="340" width="100" height="40" as="geometry" />
        </mxCell>
        <mxCell id="3jxKm5MUKbMZxZqrCTzL-13" style="edgeStyle=orthogonalEdgeStyle;rounded=0;orthogonalLoop=1;jettySize=auto;html=1;entryX=0.25;entryY=0;entryDx=0;entryDy=0;endArrow=none;endFill=0;" parent="1" source="3jxKm5MUKbMZxZqrCTzL-14" target="3jxKm5MUKbMZxZqrCTzL-12" edge="1">
          <mxGeometry relative="1" as="geometry" />
        </mxCell>
        <mxCell id="3jxKm5MUKbMZxZqrCTzL-14" value="codigo" style="ellipse;whiteSpace=wrap;html=1;align=center;fontStyle=4;" parent="1" vertex="1">
          <mxGeometry x="527.5" y="280" width="50" height="40" as="geometry" />
        </mxCell>
        <mxCell id="3jxKm5MUKbMZxZqrCTzL-15" value="nombre" style="ellipse;whiteSpace=wrap;html=1;align=center;" parent="1" vertex="1">
          <mxGeometry x="587.5" y="280" width="50" height="40" as="geometry" />
        </mxCell>
        <mxCell id="3jxKm5MUKbMZxZqrCTzL-16" style="edgeStyle=orthogonalEdgeStyle;rounded=0;orthogonalLoop=1;jettySize=auto;html=1;entryX=0.841;entryY=-0.018;entryDx=0;entryDy=0;entryPerimeter=0;endArrow=none;endFill=0;" parent="1" source="3jxKm5MUKbMZxZqrCTzL-15" target="3jxKm5MUKbMZxZqrCTzL-12" edge="1">
          <mxGeometry relative="1" as="geometry" />
        </mxCell>
        <mxCell id="3jxKm5MUKbMZxZqrCTzL-17" style="edgeStyle=orthogonalEdgeStyle;rounded=0;orthogonalLoop=1;jettySize=auto;html=1;entryX=1;entryY=0.5;entryDx=0;entryDy=0;" parent="1" source="3jxKm5MUKbMZxZqrCTzL-19" target="3jxKm5MUKbMZxZqrCTzL-5" edge="1">
          <mxGeometry relative="1" as="geometry" />
        </mxCell>
        <mxCell id="3jxKm5MUKbMZxZqrCTzL-18" style="edgeStyle=orthogonalEdgeStyle;rounded=0;orthogonalLoop=1;jettySize=auto;html=1;entryX=0;entryY=0.5;entryDx=0;entryDy=0;" parent="1" source="3jxKm5MUKbMZxZqrCTzL-19" target="3jxKm5MUKbMZxZqrCTzL-12" edge="1">
          <mxGeometry relative="1" as="geometry" />
        </mxCell>
        <mxCell id="3jxKm5MUKbMZxZqrCTzL-19" value="pertenece" style="shape=rhombus;perimeter=rhombusPerimeter;whiteSpace=wrap;html=1;align=center;" parent="1" vertex="1">
          <mxGeometry x="317.5" y="340" width="100" height="40" as="geometry" />
        </mxCell>
        <mxCell id="3jxKm5MUKbMZxZqrCTzL-20" value="(1,N)" style="text;html=1;align=center;verticalAlign=middle;resizable=0;points=[];autosize=1;strokeColor=none;fillColor=none;" parent="1" vertex="1">
          <mxGeometry x="407.5" y="330" width="50" height="30" as="geometry" />
        </mxCell>
        <mxCell id="3jxKm5MUKbMZxZqrCTzL-21" value="(1,N)" style="text;html=1;align=center;verticalAlign=middle;resizable=0;points=[];autosize=1;strokeColor=none;fillColor=none;" parent="1" vertex="1">
          <mxGeometry x="272.5" y="330" width="50" height="30" as="geometry" />
        </mxCell>
        <mxCell id="3jxKm5MUKbMZxZqrCTzL-22" value="N:M" style="text;html=1;align=center;verticalAlign=middle;resizable=0;points=[];autosize=1;strokeColor=none;fillColor=none;" parent="1" vertex="1">
          <mxGeometry x="342.5" y="310" width="50" height="30" as="geometry" />
        </mxCell>
        <mxCell id="3jxKm5MUKbMZxZqrCTzL-23" value="En el formato gráfica, añadiremos una nueva tabla, puedes llamarla como quieras, lo habitual suele ser combinar ambas entidades." style="text;html=1;align=left;verticalAlign=middle;resizable=0;points=[];autosize=1;strokeColor=none;fillColor=none;" parent="1" vertex="1">
          <mxGeometry x="40" y="450" width="720" height="30" as="geometry" />
        </mxCell>
        <mxCell id="3jxKm5MUKbMZxZqrCTzL-25" value="Empleado (&lt;u&gt;DNI&lt;/u&gt;, nombre, puesto)" style="text;html=1;align=left;verticalAlign=middle;resizable=0;points=[];autosize=1;strokeColor=none;fillColor=none;" parent="1" vertex="1">
          <mxGeometry x="40" y="530" width="200" height="30" as="geometry" />
        </mxCell>
        <mxCell id="3jxKm5MUKbMZxZqrCTzL-26" value="Departamento (&lt;u&gt;codigo&lt;/u&gt;, nombre)" style="text;html=1;align=left;verticalAlign=middle;resizable=0;points=[];autosize=1;strokeColor=none;fillColor=none;" parent="1" vertex="1">
          <mxGeometry x="40" y="690" width="190" height="30" as="geometry" />
        </mxCell>
        <mxCell id="3jxKm5MUKbMZxZqrCTzL-29" style="edgeStyle=orthogonalEdgeStyle;rounded=0;orthogonalLoop=1;jettySize=auto;html=1;" parent="1" source="3jxKm5MUKbMZxZqrCTzL-27" target="3jxKm5MUKbMZxZqrCTzL-26" edge="1">
          <mxGeometry relative="1" as="geometry">
            <Array as="points">
              <mxPoint x="320" y="665" />
              <mxPoint x="135" y="665" />
            </Array>
          </mxGeometry>
        </mxCell>
        <mxCell id="3jxKm5MUKbMZxZqrCTzL-27" value="Empleado_departamento (&lt;u&gt;DNI_empleado&lt;/u&gt;, &lt;u&gt;codigo_departamento&lt;/u&gt;)" style="text;html=1;align=left;verticalAlign=middle;resizable=0;points=[];autosize=1;strokeColor=none;fillColor=none;" parent="1" vertex="1">
          <mxGeometry x="40" y="610" width="370" height="30" as="geometry" />
        </mxCell>
        <mxCell id="3jxKm5MUKbMZxZqrCTzL-28" style="edgeStyle=orthogonalEdgeStyle;rounded=0;orthogonalLoop=1;jettySize=auto;html=1;entryX=0.361;entryY=1.072;entryDx=0;entryDy=0;entryPerimeter=0;" parent="1" source="3jxKm5MUKbMZxZqrCTzL-27" target="3jxKm5MUKbMZxZqrCTzL-25" edge="1">
          <mxGeometry relative="1" as="geometry" />
        </mxCell>
        <mxCell id="3jxKm5MUKbMZxZqrCTzL-30" value="Ambos atributos serán identificativos de la nueva tabla, además de ser claves foráneas." style="text;html=1;align=left;verticalAlign=middle;resizable=0;points=[];autosize=1;strokeColor=none;fillColor=none;" parent="1" vertex="1">
          <mxGeometry x="40" y="130" width="490" height="30" as="geometry" />
        </mxCell>
        <mxCell id="3jxKm5MUKbMZxZqrCTzL-31" value="En el formato tabla, añadiremos una nueva tabla indicando en sus atributos sus restricciones." style="text;html=1;align=left;verticalAlign=middle;resizable=0;points=[];autosize=1;strokeColor=none;fillColor=none;" parent="1" vertex="1">
          <mxGeometry x="40" y="770" width="520" height="30" as="geometry" />
        </mxCell>
        <mxCell id="3jxKm5MUKbMZxZqrCTzL-32" value="Empleado" style="shape=table;startSize=30;container=1;collapsible=0;childLayout=tableLayout;fontStyle=1" parent="1" vertex="1">
          <mxGeometry x="40" y="840" width="760" height="190" as="geometry" />
        </mxCell>
        <mxCell id="3jxKm5MUKbMZxZqrCTzL-33" value="" style="shape=tableRow;horizontal=0;startSize=0;swimlaneHead=0;swimlaneBody=0;strokeColor=inherit;top=0;left=0;bottom=0;right=0;collapsible=0;dropTarget=0;fillColor=none;points=[[0,0.5],[1,0.5]];portConstraint=eastwest;" parent="3jxKm5MUKbMZxZqrCTzL-32" vertex="1">
          <mxGeometry y="30" width="760" height="40" as="geometry" />
        </mxCell>
        <mxCell id="3jxKm5MUKbMZxZqrCTzL-34" value="&lt;b&gt;Nombre&lt;/b&gt;" style="shape=partialRectangle;html=1;whiteSpace=wrap;connectable=0;strokeColor=inherit;overflow=hidden;fillColor=none;top=0;left=0;bottom=0;right=0;pointerEvents=1;" parent="3jxKm5MUKbMZxZqrCTzL-33" vertex="1">
          <mxGeometry width="130" height="40" as="geometry">
            <mxRectangle width="130" height="40" as="alternateBounds" />
          </mxGeometry>
        </mxCell>
        <mxCell id="3jxKm5MUKbMZxZqrCTzL-35" value="&lt;b&gt;Descripción&lt;/b&gt;" style="shape=partialRectangle;html=1;whiteSpace=wrap;connectable=0;strokeColor=inherit;overflow=hidden;fillColor=none;top=0;left=0;bottom=0;right=0;pointerEvents=1;" parent="3jxKm5MUKbMZxZqrCTzL-33" vertex="1">
          <mxGeometry x="130" width="240" height="40" as="geometry">
            <mxRectangle width="240" height="40" as="alternateBounds" />
          </mxGeometry>
        </mxCell>
        <mxCell id="3jxKm5MUKbMZxZqrCTzL-36" value="&lt;b&gt;Tipo&lt;/b&gt;" style="shape=partialRectangle;html=1;whiteSpace=wrap;connectable=0;strokeColor=inherit;overflow=hidden;fillColor=none;top=0;left=0;bottom=0;right=0;pointerEvents=1;" parent="3jxKm5MUKbMZxZqrCTzL-33" vertex="1">
          <mxGeometry x="370" width="110" height="40" as="geometry">
            <mxRectangle width="110" height="40" as="alternateBounds" />
          </mxGeometry>
        </mxCell>
        <mxCell id="3jxKm5MUKbMZxZqrCTzL-37" value="&lt;b&gt;Restricciones&lt;/b&gt;" style="shape=partialRectangle;html=1;whiteSpace=wrap;connectable=0;strokeColor=inherit;overflow=hidden;fillColor=none;top=0;left=0;bottom=0;right=0;pointerEvents=1;" parent="3jxKm5MUKbMZxZqrCTzL-33" vertex="1">
          <mxGeometry x="480" width="280" height="40" as="geometry">
            <mxRectangle width="280" height="40" as="alternateBounds" />
          </mxGeometry>
        </mxCell>
        <mxCell id="3jxKm5MUKbMZxZqrCTzL-38" value="" style="shape=tableRow;horizontal=0;startSize=0;swimlaneHead=0;swimlaneBody=0;strokeColor=inherit;top=0;left=0;bottom=0;right=0;collapsible=0;dropTarget=0;fillColor=none;points=[[0,0.5],[1,0.5]];portConstraint=eastwest;" parent="3jxKm5MUKbMZxZqrCTzL-32" vertex="1">
          <mxGeometry y="70" width="760" height="40" as="geometry" />
        </mxCell>
        <mxCell id="3jxKm5MUKbMZxZqrCTzL-39" value="DNI" style="shape=partialRectangle;html=1;whiteSpace=wrap;connectable=0;strokeColor=inherit;overflow=hidden;fillColor=none;top=0;left=0;bottom=0;right=0;pointerEvents=1;" parent="3jxKm5MUKbMZxZqrCTzL-38" vertex="1">
          <mxGeometry width="130" height="40" as="geometry">
            <mxRectangle width="130" height="40" as="alternateBounds" />
          </mxGeometry>
        </mxCell>
        <mxCell id="3jxKm5MUKbMZxZqrCTzL-40" value="DNI del empleado" style="shape=partialRectangle;html=1;whiteSpace=wrap;connectable=0;strokeColor=inherit;overflow=hidden;fillColor=none;top=0;left=0;bottom=0;right=0;pointerEvents=1;" parent="3jxKm5MUKbMZxZqrCTzL-38" vertex="1">
          <mxGeometry x="130" width="240" height="40" as="geometry">
            <mxRectangle width="240" height="40" as="alternateBounds" />
          </mxGeometry>
        </mxCell>
        <mxCell id="3jxKm5MUKbMZxZqrCTzL-41" value="Cadena" style="shape=partialRectangle;html=1;whiteSpace=wrap;connectable=0;strokeColor=inherit;overflow=hidden;fillColor=none;top=0;left=0;bottom=0;right=0;pointerEvents=1;" parent="3jxKm5MUKbMZxZqrCTzL-38" vertex="1">
          <mxGeometry x="370" width="110" height="40" as="geometry">
            <mxRectangle width="110" height="40" as="alternateBounds" />
          </mxGeometry>
        </mxCell>
        <mxCell id="3jxKm5MUKbMZxZqrCTzL-42" value="Clave primaria" style="shape=partialRectangle;html=1;whiteSpace=wrap;connectable=0;strokeColor=inherit;overflow=hidden;fillColor=none;top=0;left=0;bottom=0;right=0;pointerEvents=1;" parent="3jxKm5MUKbMZxZqrCTzL-38" vertex="1">
          <mxGeometry x="480" width="280" height="40" as="geometry">
            <mxRectangle width="280" height="40" as="alternateBounds" />
          </mxGeometry>
        </mxCell>
        <mxCell id="3jxKm5MUKbMZxZqrCTzL-43" style="shape=tableRow;horizontal=0;startSize=0;swimlaneHead=0;swimlaneBody=0;strokeColor=inherit;top=0;left=0;bottom=0;right=0;collapsible=0;dropTarget=0;fillColor=none;points=[[0,0.5],[1,0.5]];portConstraint=eastwest;" parent="3jxKm5MUKbMZxZqrCTzL-32" vertex="1">
          <mxGeometry y="110" width="760" height="40" as="geometry" />
        </mxCell>
        <mxCell id="3jxKm5MUKbMZxZqrCTzL-44" value="nombre" style="shape=partialRectangle;html=1;whiteSpace=wrap;connectable=0;strokeColor=inherit;overflow=hidden;fillColor=none;top=0;left=0;bottom=0;right=0;pointerEvents=1;" parent="3jxKm5MUKbMZxZqrCTzL-43" vertex="1">
          <mxGeometry width="130" height="40" as="geometry">
            <mxRectangle width="130" height="40" as="alternateBounds" />
          </mxGeometry>
        </mxCell>
        <mxCell id="3jxKm5MUKbMZxZqrCTzL-45" value="Nombre del empleado" style="shape=partialRectangle;html=1;whiteSpace=wrap;connectable=0;strokeColor=inherit;overflow=hidden;fillColor=none;top=0;left=0;bottom=0;right=0;pointerEvents=1;" parent="3jxKm5MUKbMZxZqrCTzL-43" vertex="1">
          <mxGeometry x="130" width="240" height="40" as="geometry">
            <mxRectangle width="240" height="40" as="alternateBounds" />
          </mxGeometry>
        </mxCell>
        <mxCell id="3jxKm5MUKbMZxZqrCTzL-46" value="Cadena" style="shape=partialRectangle;html=1;whiteSpace=wrap;connectable=0;strokeColor=inherit;overflow=hidden;fillColor=none;top=0;left=0;bottom=0;right=0;pointerEvents=1;" parent="3jxKm5MUKbMZxZqrCTzL-43" vertex="1">
          <mxGeometry x="370" width="110" height="40" as="geometry">
            <mxRectangle width="110" height="40" as="alternateBounds" />
          </mxGeometry>
        </mxCell>
        <mxCell id="3jxKm5MUKbMZxZqrCTzL-47" style="shape=partialRectangle;html=1;whiteSpace=wrap;connectable=0;strokeColor=inherit;overflow=hidden;fillColor=none;top=0;left=0;bottom=0;right=0;pointerEvents=1;" parent="3jxKm5MUKbMZxZqrCTzL-43" vertex="1">
          <mxGeometry x="480" width="280" height="40" as="geometry">
            <mxRectangle width="280" height="40" as="alternateBounds" />
          </mxGeometry>
        </mxCell>
        <mxCell id="3jxKm5MUKbMZxZqrCTzL-48" style="shape=tableRow;horizontal=0;startSize=0;swimlaneHead=0;swimlaneBody=0;strokeColor=inherit;top=0;left=0;bottom=0;right=0;collapsible=0;dropTarget=0;fillColor=none;points=[[0,0.5],[1,0.5]];portConstraint=eastwest;" parent="3jxKm5MUKbMZxZqrCTzL-32" vertex="1">
          <mxGeometry y="150" width="760" height="40" as="geometry" />
        </mxCell>
        <mxCell id="3jxKm5MUKbMZxZqrCTzL-49" value="puesto" style="shape=partialRectangle;html=1;whiteSpace=wrap;connectable=0;strokeColor=inherit;overflow=hidden;fillColor=none;top=0;left=0;bottom=0;right=0;pointerEvents=1;" parent="3jxKm5MUKbMZxZqrCTzL-48" vertex="1">
          <mxGeometry width="130" height="40" as="geometry">
            <mxRectangle width="130" height="40" as="alternateBounds" />
          </mxGeometry>
        </mxCell>
        <mxCell id="3jxKm5MUKbMZxZqrCTzL-50" value="Puesto del empleado" style="shape=partialRectangle;html=1;whiteSpace=wrap;connectable=0;strokeColor=inherit;overflow=hidden;fillColor=none;top=0;left=0;bottom=0;right=0;pointerEvents=1;" parent="3jxKm5MUKbMZxZqrCTzL-48" vertex="1">
          <mxGeometry x="130" width="240" height="40" as="geometry">
            <mxRectangle width="240" height="40" as="alternateBounds" />
          </mxGeometry>
        </mxCell>
        <mxCell id="3jxKm5MUKbMZxZqrCTzL-51" value="Cadena" style="shape=partialRectangle;html=1;whiteSpace=wrap;connectable=0;strokeColor=inherit;overflow=hidden;fillColor=none;top=0;left=0;bottom=0;right=0;pointerEvents=1;" parent="3jxKm5MUKbMZxZqrCTzL-48" vertex="1">
          <mxGeometry x="370" width="110" height="40" as="geometry">
            <mxRectangle width="110" height="40" as="alternateBounds" />
          </mxGeometry>
        </mxCell>
        <mxCell id="3jxKm5MUKbMZxZqrCTzL-52" value="" style="shape=partialRectangle;html=1;whiteSpace=wrap;connectable=0;strokeColor=inherit;overflow=hidden;fillColor=none;top=0;left=0;bottom=0;right=0;pointerEvents=1;" parent="3jxKm5MUKbMZxZqrCTzL-48" vertex="1">
          <mxGeometry x="480" width="280" height="40" as="geometry">
            <mxRectangle width="280" height="40" as="alternateBounds" />
          </mxGeometry>
        </mxCell>
        <mxCell id="3jxKm5MUKbMZxZqrCTzL-58" value="Departamento" style="shape=table;startSize=30;container=1;collapsible=0;childLayout=tableLayout;fontStyle=1" parent="1" vertex="1">
          <mxGeometry x="40" y="1280" width="760" height="150" as="geometry" />
        </mxCell>
        <mxCell id="3jxKm5MUKbMZxZqrCTzL-59" value="" style="shape=tableRow;horizontal=0;startSize=0;swimlaneHead=0;swimlaneBody=0;strokeColor=inherit;top=0;left=0;bottom=0;right=0;collapsible=0;dropTarget=0;fillColor=none;points=[[0,0.5],[1,0.5]];portConstraint=eastwest;" parent="3jxKm5MUKbMZxZqrCTzL-58" vertex="1">
          <mxGeometry y="30" width="760" height="40" as="geometry" />
        </mxCell>
        <mxCell id="3jxKm5MUKbMZxZqrCTzL-60" value="&lt;b&gt;Nombre&lt;/b&gt;" style="shape=partialRectangle;html=1;whiteSpace=wrap;connectable=0;strokeColor=inherit;overflow=hidden;fillColor=none;top=0;left=0;bottom=0;right=0;pointerEvents=1;" parent="3jxKm5MUKbMZxZqrCTzL-59" vertex="1">
          <mxGeometry width="130" height="40" as="geometry">
            <mxRectangle width="130" height="40" as="alternateBounds" />
          </mxGeometry>
        </mxCell>
        <mxCell id="3jxKm5MUKbMZxZqrCTzL-61" value="&lt;b&gt;Descripción&lt;/b&gt;" style="shape=partialRectangle;html=1;whiteSpace=wrap;connectable=0;strokeColor=inherit;overflow=hidden;fillColor=none;top=0;left=0;bottom=0;right=0;pointerEvents=1;" parent="3jxKm5MUKbMZxZqrCTzL-59" vertex="1">
          <mxGeometry x="130" width="240" height="40" as="geometry">
            <mxRectangle width="240" height="40" as="alternateBounds" />
          </mxGeometry>
        </mxCell>
        <mxCell id="3jxKm5MUKbMZxZqrCTzL-62" value="&lt;b&gt;Tipo&lt;/b&gt;" style="shape=partialRectangle;html=1;whiteSpace=wrap;connectable=0;strokeColor=inherit;overflow=hidden;fillColor=none;top=0;left=0;bottom=0;right=0;pointerEvents=1;" parent="3jxKm5MUKbMZxZqrCTzL-59" vertex="1">
          <mxGeometry x="370" width="110" height="40" as="geometry">
            <mxRectangle width="110" height="40" as="alternateBounds" />
          </mxGeometry>
        </mxCell>
        <mxCell id="3jxKm5MUKbMZxZqrCTzL-63" value="&lt;b&gt;Restricciones&lt;/b&gt;" style="shape=partialRectangle;html=1;whiteSpace=wrap;connectable=0;strokeColor=inherit;overflow=hidden;fillColor=none;top=0;left=0;bottom=0;right=0;pointerEvents=1;" parent="3jxKm5MUKbMZxZqrCTzL-59" vertex="1">
          <mxGeometry x="480" width="280" height="40" as="geometry">
            <mxRectangle width="280" height="40" as="alternateBounds" />
          </mxGeometry>
        </mxCell>
        <mxCell id="3jxKm5MUKbMZxZqrCTzL-64" value="" style="shape=tableRow;horizontal=0;startSize=0;swimlaneHead=0;swimlaneBody=0;strokeColor=inherit;top=0;left=0;bottom=0;right=0;collapsible=0;dropTarget=0;fillColor=none;points=[[0,0.5],[1,0.5]];portConstraint=eastwest;" parent="3jxKm5MUKbMZxZqrCTzL-58" vertex="1">
          <mxGeometry y="70" width="760" height="40" as="geometry" />
        </mxCell>
        <mxCell id="3jxKm5MUKbMZxZqrCTzL-65" value="codigo" style="shape=partialRectangle;html=1;whiteSpace=wrap;connectable=0;strokeColor=inherit;overflow=hidden;fillColor=none;top=0;left=0;bottom=0;right=0;pointerEvents=1;" parent="3jxKm5MUKbMZxZqrCTzL-64" vertex="1">
          <mxGeometry width="130" height="40" as="geometry">
            <mxRectangle width="130" height="40" as="alternateBounds" />
          </mxGeometry>
        </mxCell>
        <mxCell id="3jxKm5MUKbMZxZqrCTzL-66" value="Código del departamento" style="shape=partialRectangle;html=1;whiteSpace=wrap;connectable=0;strokeColor=inherit;overflow=hidden;fillColor=none;top=0;left=0;bottom=0;right=0;pointerEvents=1;" parent="3jxKm5MUKbMZxZqrCTzL-64" vertex="1">
          <mxGeometry x="130" width="240" height="40" as="geometry">
            <mxRectangle width="240" height="40" as="alternateBounds" />
          </mxGeometry>
        </mxCell>
        <mxCell id="3jxKm5MUKbMZxZqrCTzL-67" value="Número" style="shape=partialRectangle;html=1;whiteSpace=wrap;connectable=0;strokeColor=inherit;overflow=hidden;fillColor=none;top=0;left=0;bottom=0;right=0;pointerEvents=1;" parent="3jxKm5MUKbMZxZqrCTzL-64" vertex="1">
          <mxGeometry x="370" width="110" height="40" as="geometry">
            <mxRectangle width="110" height="40" as="alternateBounds" />
          </mxGeometry>
        </mxCell>
        <mxCell id="3jxKm5MUKbMZxZqrCTzL-68" value="Clave primaria" style="shape=partialRectangle;html=1;whiteSpace=wrap;connectable=0;strokeColor=inherit;overflow=hidden;fillColor=none;top=0;left=0;bottom=0;right=0;pointerEvents=1;" parent="3jxKm5MUKbMZxZqrCTzL-64" vertex="1">
          <mxGeometry x="480" width="280" height="40" as="geometry">
            <mxRectangle width="280" height="40" as="alternateBounds" />
          </mxGeometry>
        </mxCell>
        <mxCell id="3jxKm5MUKbMZxZqrCTzL-69" style="shape=tableRow;horizontal=0;startSize=0;swimlaneHead=0;swimlaneBody=0;strokeColor=inherit;top=0;left=0;bottom=0;right=0;collapsible=0;dropTarget=0;fillColor=none;points=[[0,0.5],[1,0.5]];portConstraint=eastwest;" parent="3jxKm5MUKbMZxZqrCTzL-58" vertex="1">
          <mxGeometry y="110" width="760" height="40" as="geometry" />
        </mxCell>
        <mxCell id="3jxKm5MUKbMZxZqrCTzL-70" value="nombre" style="shape=partialRectangle;html=1;whiteSpace=wrap;connectable=0;strokeColor=inherit;overflow=hidden;fillColor=none;top=0;left=0;bottom=0;right=0;pointerEvents=1;" parent="3jxKm5MUKbMZxZqrCTzL-69" vertex="1">
          <mxGeometry width="130" height="40" as="geometry">
            <mxRectangle width="130" height="40" as="alternateBounds" />
          </mxGeometry>
        </mxCell>
        <mxCell id="3jxKm5MUKbMZxZqrCTzL-71" value="Nombre del departamento" style="shape=partialRectangle;html=1;whiteSpace=wrap;connectable=0;strokeColor=inherit;overflow=hidden;fillColor=none;top=0;left=0;bottom=0;right=0;pointerEvents=1;" parent="3jxKm5MUKbMZxZqrCTzL-69" vertex="1">
          <mxGeometry x="130" width="240" height="40" as="geometry">
            <mxRectangle width="240" height="40" as="alternateBounds" />
          </mxGeometry>
        </mxCell>
        <mxCell id="3jxKm5MUKbMZxZqrCTzL-72" value="Cadena" style="shape=partialRectangle;html=1;whiteSpace=wrap;connectable=0;strokeColor=inherit;overflow=hidden;fillColor=none;top=0;left=0;bottom=0;right=0;pointerEvents=1;" parent="3jxKm5MUKbMZxZqrCTzL-69" vertex="1">
          <mxGeometry x="370" width="110" height="40" as="geometry">
            <mxRectangle width="110" height="40" as="alternateBounds" />
          </mxGeometry>
        </mxCell>
        <mxCell id="3jxKm5MUKbMZxZqrCTzL-73" style="shape=partialRectangle;html=1;whiteSpace=wrap;connectable=0;strokeColor=inherit;overflow=hidden;fillColor=none;top=0;left=0;bottom=0;right=0;pointerEvents=1;" parent="3jxKm5MUKbMZxZqrCTzL-69" vertex="1">
          <mxGeometry x="480" width="280" height="40" as="geometry">
            <mxRectangle width="280" height="40" as="alternateBounds" />
          </mxGeometry>
        </mxCell>
        <mxCell id="3jxKm5MUKbMZxZqrCTzL-74" value="Empleado_departamento" style="shape=table;startSize=30;container=1;collapsible=0;childLayout=tableLayout;fontStyle=1" parent="1" vertex="1">
          <mxGeometry x="40" y="1080" width="760" height="150" as="geometry" />
        </mxCell>
        <mxCell id="3jxKm5MUKbMZxZqrCTzL-75" value="" style="shape=tableRow;horizontal=0;startSize=0;swimlaneHead=0;swimlaneBody=0;strokeColor=inherit;top=0;left=0;bottom=0;right=0;collapsible=0;dropTarget=0;fillColor=none;points=[[0,0.5],[1,0.5]];portConstraint=eastwest;" parent="3jxKm5MUKbMZxZqrCTzL-74" vertex="1">
          <mxGeometry y="30" width="760" height="40" as="geometry" />
        </mxCell>
        <mxCell id="3jxKm5MUKbMZxZqrCTzL-76" value="&lt;b&gt;Nombre&lt;/b&gt;" style="shape=partialRectangle;html=1;whiteSpace=wrap;connectable=0;strokeColor=inherit;overflow=hidden;fillColor=none;top=0;left=0;bottom=0;right=0;pointerEvents=1;" parent="3jxKm5MUKbMZxZqrCTzL-75" vertex="1">
          <mxGeometry width="130" height="40" as="geometry">
            <mxRectangle width="130" height="40" as="alternateBounds" />
          </mxGeometry>
        </mxCell>
        <mxCell id="3jxKm5MUKbMZxZqrCTzL-77" value="&lt;b&gt;Descripción&lt;/b&gt;" style="shape=partialRectangle;html=1;whiteSpace=wrap;connectable=0;strokeColor=inherit;overflow=hidden;fillColor=none;top=0;left=0;bottom=0;right=0;pointerEvents=1;" parent="3jxKm5MUKbMZxZqrCTzL-75" vertex="1">
          <mxGeometry x="130" width="240" height="40" as="geometry">
            <mxRectangle width="240" height="40" as="alternateBounds" />
          </mxGeometry>
        </mxCell>
        <mxCell id="3jxKm5MUKbMZxZqrCTzL-78" value="&lt;b&gt;Tipo&lt;/b&gt;" style="shape=partialRectangle;html=1;whiteSpace=wrap;connectable=0;strokeColor=inherit;overflow=hidden;fillColor=none;top=0;left=0;bottom=0;right=0;pointerEvents=1;" parent="3jxKm5MUKbMZxZqrCTzL-75" vertex="1">
          <mxGeometry x="370" width="110" height="40" as="geometry">
            <mxRectangle width="110" height="40" as="alternateBounds" />
          </mxGeometry>
        </mxCell>
        <mxCell id="3jxKm5MUKbMZxZqrCTzL-79" value="&lt;b&gt;Restricciones&lt;/b&gt;" style="shape=partialRectangle;html=1;whiteSpace=wrap;connectable=0;strokeColor=inherit;overflow=hidden;fillColor=none;top=0;left=0;bottom=0;right=0;pointerEvents=1;" parent="3jxKm5MUKbMZxZqrCTzL-75" vertex="1">
          <mxGeometry x="480" width="280" height="40" as="geometry">
            <mxRectangle width="280" height="40" as="alternateBounds" />
          </mxGeometry>
        </mxCell>
        <mxCell id="3jxKm5MUKbMZxZqrCTzL-80" value="" style="shape=tableRow;horizontal=0;startSize=0;swimlaneHead=0;swimlaneBody=0;strokeColor=inherit;top=0;left=0;bottom=0;right=0;collapsible=0;dropTarget=0;fillColor=none;points=[[0,0.5],[1,0.5]];portConstraint=eastwest;" parent="3jxKm5MUKbMZxZqrCTzL-74" vertex="1">
          <mxGeometry y="70" width="760" height="40" as="geometry" />
        </mxCell>
        <mxCell id="3jxKm5MUKbMZxZqrCTzL-81" value="DNI_empleado" style="shape=partialRectangle;html=1;whiteSpace=wrap;connectable=0;strokeColor=inherit;overflow=hidden;fillColor=none;top=0;left=0;bottom=0;right=0;pointerEvents=1;" parent="3jxKm5MUKbMZxZqrCTzL-80" vertex="1">
          <mxGeometry width="130" height="40" as="geometry">
            <mxRectangle width="130" height="40" as="alternateBounds" />
          </mxGeometry>
        </mxCell>
        <mxCell id="3jxKm5MUKbMZxZqrCTzL-82" value="DNI del empleado" style="shape=partialRectangle;html=1;whiteSpace=wrap;connectable=0;strokeColor=inherit;overflow=hidden;fillColor=none;top=0;left=0;bottom=0;right=0;pointerEvents=1;" parent="3jxKm5MUKbMZxZqrCTzL-80" vertex="1">
          <mxGeometry x="130" width="240" height="40" as="geometry">
            <mxRectangle width="240" height="40" as="alternateBounds" />
          </mxGeometry>
        </mxCell>
        <mxCell id="3jxKm5MUKbMZxZqrCTzL-83" value="Cadena" style="shape=partialRectangle;html=1;whiteSpace=wrap;connectable=0;strokeColor=inherit;overflow=hidden;fillColor=none;top=0;left=0;bottom=0;right=0;pointerEvents=1;" parent="3jxKm5MUKbMZxZqrCTzL-80" vertex="1">
          <mxGeometry x="370" width="110" height="40" as="geometry">
            <mxRectangle width="110" height="40" as="alternateBounds" />
          </mxGeometry>
        </mxCell>
        <mxCell id="3jxKm5MUKbMZxZqrCTzL-84" value="Clave primaria&lt;div&gt;Clave foránea (empleado =&amp;gt; DNI)&lt;/div&gt;" style="shape=partialRectangle;html=1;whiteSpace=wrap;connectable=0;strokeColor=inherit;overflow=hidden;fillColor=none;top=0;left=0;bottom=0;right=0;pointerEvents=1;" parent="3jxKm5MUKbMZxZqrCTzL-80" vertex="1">
          <mxGeometry x="480" width="280" height="40" as="geometry">
            <mxRectangle width="280" height="40" as="alternateBounds" />
          </mxGeometry>
        </mxCell>
        <mxCell id="3jxKm5MUKbMZxZqrCTzL-85" style="shape=tableRow;horizontal=0;startSize=0;swimlaneHead=0;swimlaneBody=0;strokeColor=inherit;top=0;left=0;bottom=0;right=0;collapsible=0;dropTarget=0;fillColor=none;points=[[0,0.5],[1,0.5]];portConstraint=eastwest;" parent="3jxKm5MUKbMZxZqrCTzL-74" vertex="1">
          <mxGeometry y="110" width="760" height="40" as="geometry" />
        </mxCell>
        <mxCell id="3jxKm5MUKbMZxZqrCTzL-86" value="codigo_departamento" style="shape=partialRectangle;html=1;whiteSpace=wrap;connectable=0;strokeColor=inherit;overflow=hidden;fillColor=none;top=0;left=0;bottom=0;right=0;pointerEvents=1;" parent="3jxKm5MUKbMZxZqrCTzL-85" vertex="1">
          <mxGeometry width="130" height="40" as="geometry">
            <mxRectangle width="130" height="40" as="alternateBounds" />
          </mxGeometry>
        </mxCell>
        <mxCell id="3jxKm5MUKbMZxZqrCTzL-87" value="Código del departamento" style="shape=partialRectangle;html=1;whiteSpace=wrap;connectable=0;strokeColor=inherit;overflow=hidden;fillColor=none;top=0;left=0;bottom=0;right=0;pointerEvents=1;" parent="3jxKm5MUKbMZxZqrCTzL-85" vertex="1">
          <mxGeometry x="130" width="240" height="40" as="geometry">
            <mxRectangle width="240" height="40" as="alternateBounds" />
          </mxGeometry>
        </mxCell>
        <mxCell id="3jxKm5MUKbMZxZqrCTzL-88" value="Número" style="shape=partialRectangle;html=1;whiteSpace=wrap;connectable=0;strokeColor=inherit;overflow=hidden;fillColor=none;top=0;left=0;bottom=0;right=0;pointerEvents=1;" parent="3jxKm5MUKbMZxZqrCTzL-85" vertex="1">
          <mxGeometry x="370" width="110" height="40" as="geometry">
            <mxRectangle width="110" height="40" as="alternateBounds" />
          </mxGeometry>
        </mxCell>
        <mxCell id="3jxKm5MUKbMZxZqrCTzL-89" value="Clave primaria&lt;div&gt;Clave foránea (departamento =&amp;gt; codigo)&lt;/div&gt;" style="shape=partialRectangle;html=1;whiteSpace=wrap;connectable=0;strokeColor=inherit;overflow=hidden;fillColor=none;top=0;left=0;bottom=0;right=0;pointerEvents=1;" parent="3jxKm5MUKbMZxZqrCTzL-85" vertex="1">
          <mxGeometry x="480" width="280" height="40" as="geometry">
            <mxRectangle width="280" height="40" as="alternateBounds" />
          </mxGeometry>
        </mxCell>
        <mxCell id="3jxKm5MUKbMZxZqrCTzL-91" value="&lt;span style=&quot;color: rgba(0, 0, 0, 0); font-family: monospace; font-size: 0px; text-align: start;&quot;&gt;%3CmxGraphModel%3E%3Croot%3E%3CmxCell%20id%3D%220%22%2F%3E%3CmxCell%20id%3D%221%22%20parent%3D%220%22%2F%3E%3CmxCell%20id%3D%222%22%20value%3D%22En%20el%20caso%20de%20que%20la%20relaci%C3%B3n%20tenga%20atributos%2C%20se%20a%C3%B1adir%C3%A1n%20a%20la%20entidad%20que%20tenga%20N%20como%20m%C3%A1ximo.%22%20style%3D%22text%3Bhtml%3D1%3Balign%3Dleft%3BverticalAlign%3Dmiddle%3Bresizable%3D0%3Bpoints%3D%5B%5D%3Bautosize%3D1%3BstrokeColor%3Dnone%3BfillColor%3Dnone%3B%22%20vertex%3D%221%22%20parent%3D%221%22%3E%3CmxGeometry%20x%3D%2240%22%20y%3D%22130%22%20width%3D%22550%22%20height%3D%2230%22%20as%3D%22geometry%22%2F%3E%3C%2FmxCell%3E%3C%2Froot%3E%3C%2FmxGraphModel%3E&lt;/span&gt;" style="text;html=1;align=center;verticalAlign=middle;resizable=0;points=[];autosize=1;strokeColor=none;fillColor=none;" parent="1" vertex="1">
          <mxGeometry x="50" y="168" width="20" height="30" as="geometry" />
        </mxCell>
        <mxCell id="3jxKm5MUKbMZxZqrCTzL-92" value="En el caso de que la relación tenga atributos, se añadirán a la nueva tabla como atributos normales." style="text;html=1;align=left;verticalAlign=middle;resizable=0;points=[];autosize=1;strokeColor=none;fillColor=none;" parent="1" vertex="1">
          <mxGeometry x="40" y="170" width="560" height="30" as="geometry" />
        </mxCell>
        <mxCell id="IbHUjtiDqlyyLLWEisCw-1" value="Cuando tenemos dos atributos identificativos, no pueden haber dos registros repetidos en la nueva tabla." style="text;html=1;align=left;verticalAlign=middle;resizable=0;points=[];autosize=1;strokeColor=none;fillColor=none;" parent="1" vertex="1">
          <mxGeometry x="40" y="1490" width="580" height="30" as="geometry" />
        </mxCell>
        <mxCell id="IbHUjtiDqlyyLLWEisCw-2" value="Por ejemplo, no podemos tener que el mismo empleado esta en el mismo departamento 2 o más veces." style="text;html=1;align=left;verticalAlign=middle;resizable=0;points=[];autosize=1;strokeColor=none;fillColor=none;" parent="1" vertex="1">
          <mxGeometry x="40" y="1530" width="580" height="30" as="geometry" />
        </mxCell>
        <mxCell id="IbHUjtiDqlyyLLWEisCw-3" value="Pero, ¿y si tuvieramos que repetirlo varias veces?&amp;nbsp;" style="text;html=1;align=left;verticalAlign=middle;resizable=0;points=[];autosize=1;strokeColor=none;fillColor=none;" parent="1" vertex="1">
          <mxGeometry x="40" y="1570" width="290" height="30" as="geometry" />
        </mxCell>
        <mxCell id="IbHUjtiDqlyyLLWEisCw-5" value="&lt;span style=&quot;&quot;&gt;Por ejemplo, en nuestro caso, que un empleado pueda ingresar en un departamento, varias veces indicando la fecha de ingreso.&lt;/span&gt;" style="text;html=1;align=left;verticalAlign=middle;resizable=0;points=[];autosize=1;strokeColor=none;fillColor=none;" parent="1" vertex="1">
          <mxGeometry x="40" y="1610" width="710" height="30" as="geometry" />
        </mxCell>
        <mxCell id="IbHUjtiDqlyyLLWEisCw-7" value="&lt;span style=&quot;color: rgba(0, 0, 0, 0); font-family: monospace; font-size: 0px; font-weight: 400;&quot;&gt;%3CmxGraphModel%3E%3Croot%3E%3CmxCell%20id%3D%220%22%2F%3E%3CmxCell%20id%3D%221%22%20parent%3D%220%22%2F%3E%3CmxCell%20id%3D%222%22%20value%3D%22Queremos%20registrar%20empleados%20en%20nuestra%20base%20de%20datos%20su%20DNI%2C%20nombre%2C%20fecha%20%26lt%3Bspan%20style%3D%26quot%3Bbackground-color%3A%20initial%3B%26quot%3B%26gt%3By%20puesto.%20Cada%20empleado%20pertence%20a%20un%20departamento.%26lt%3B%2Fspan%26gt%3B%22%20style%3D%22text%3Bhtml%3D1%3Balign%3Dleft%3BverticalAlign%3Dmiddle%3Bresizable%3D0%3Bpoints%3D%5B%5D%3Bautosize%3D1%3BstrokeColor%3Dnone%3BfillColor%3Dnone%3BfontStyle%3D1%22%20vertex%3D%221%22%20parent%3D%221%22%3E%3CmxGeometry%20x%3D%2240%22%20y%3D%222130%22%20width%3D%22750%22%20height%3D%2230%22%20as%3D%22geometry%22%2F%3E%3C%2FmxCell%3E%3C%2Froot%3E%3C%2FmxGraphModel%3E&lt;/span&gt;" style="text;html=1;align=left;verticalAlign=middle;resizable=0;points=[];autosize=1;strokeColor=none;fillColor=none;fontStyle=1" parent="1" vertex="1">
          <mxGeometry x="40" y="1760" width="20" height="30" as="geometry" />
        </mxCell>
        <mxCell id="IbHUjtiDqlyyLLWEisCw-8" value="Empleado" style="whiteSpace=wrap;html=1;align=center;" parent="1" vertex="1">
          <mxGeometry x="107.5" y="1780" width="100" height="40" as="geometry" />
        </mxCell>
        <mxCell id="IbHUjtiDqlyyLLWEisCw-9" style="edgeStyle=orthogonalEdgeStyle;rounded=0;orthogonalLoop=1;jettySize=auto;html=1;endArrow=none;endFill=0;" parent="1" source="IbHUjtiDqlyyLLWEisCw-10" target="IbHUjtiDqlyyLLWEisCw-8" edge="1">
          <mxGeometry relative="1" as="geometry" />
        </mxCell>
        <mxCell id="IbHUjtiDqlyyLLWEisCw-10" value="nombre" style="ellipse;whiteSpace=wrap;html=1;align=center;" parent="1" vertex="1">
          <mxGeometry x="107.5" y="1720" width="60" height="40" as="geometry" />
        </mxCell>
        <mxCell id="IbHUjtiDqlyyLLWEisCw-11" style="edgeStyle=orthogonalEdgeStyle;rounded=0;orthogonalLoop=1;jettySize=auto;html=1;entryX=0;entryY=0.5;entryDx=0;entryDy=0;endArrow=none;endFill=0;" parent="1" source="IbHUjtiDqlyyLLWEisCw-12" target="IbHUjtiDqlyyLLWEisCw-8" edge="1">
          <mxGeometry relative="1" as="geometry">
            <Array as="points">
              <mxPoint x="67.5" y="1800" />
            </Array>
          </mxGeometry>
        </mxCell>
        <mxCell id="IbHUjtiDqlyyLLWEisCw-12" value="DNI" style="ellipse;whiteSpace=wrap;html=1;align=center;fontStyle=4;" parent="1" vertex="1">
          <mxGeometry x="42.5" y="1720" width="50" height="40" as="geometry" />
        </mxCell>
        <mxCell id="IbHUjtiDqlyyLLWEisCw-13" style="edgeStyle=orthogonalEdgeStyle;rounded=0;orthogonalLoop=1;jettySize=auto;html=1;entryX=0.796;entryY=0.011;entryDx=0;entryDy=0;endArrow=none;endFill=0;entryPerimeter=0;" parent="1" source="IbHUjtiDqlyyLLWEisCw-14" target="IbHUjtiDqlyyLLWEisCw-8" edge="1">
          <mxGeometry relative="1" as="geometry">
            <Array as="points">
              <mxPoint x="197.5" y="1740" />
              <mxPoint x="197.5" y="1780" />
              <mxPoint x="187.5" y="1780" />
            </Array>
          </mxGeometry>
        </mxCell>
        <mxCell id="IbHUjtiDqlyyLLWEisCw-14" value="puesto" style="ellipse;whiteSpace=wrap;html=1;align=center;" parent="1" vertex="1">
          <mxGeometry x="177.5" y="1720" width="50" height="40" as="geometry" />
        </mxCell>
        <mxCell id="IbHUjtiDqlyyLLWEisCw-15" value="Departamento" style="whiteSpace=wrap;html=1;align=center;" parent="1" vertex="1">
          <mxGeometry x="527.5" y="1780" width="100" height="40" as="geometry" />
        </mxCell>
        <mxCell id="IbHUjtiDqlyyLLWEisCw-16" style="edgeStyle=orthogonalEdgeStyle;rounded=0;orthogonalLoop=1;jettySize=auto;html=1;entryX=0.25;entryY=0;entryDx=0;entryDy=0;endArrow=none;endFill=0;" parent="1" source="IbHUjtiDqlyyLLWEisCw-17" target="IbHUjtiDqlyyLLWEisCw-15" edge="1">
          <mxGeometry relative="1" as="geometry" />
        </mxCell>
        <mxCell id="IbHUjtiDqlyyLLWEisCw-17" value="codigo" style="ellipse;whiteSpace=wrap;html=1;align=center;fontStyle=4;" parent="1" vertex="1">
          <mxGeometry x="527.5" y="1720" width="50" height="40" as="geometry" />
        </mxCell>
        <mxCell id="IbHUjtiDqlyyLLWEisCw-18" value="nombre" style="ellipse;whiteSpace=wrap;html=1;align=center;" parent="1" vertex="1">
          <mxGeometry x="587.5" y="1720" width="50" height="40" as="geometry" />
        </mxCell>
        <mxCell id="IbHUjtiDqlyyLLWEisCw-19" style="edgeStyle=orthogonalEdgeStyle;rounded=0;orthogonalLoop=1;jettySize=auto;html=1;entryX=0.841;entryY=-0.018;entryDx=0;entryDy=0;entryPerimeter=0;endArrow=none;endFill=0;" parent="1" source="IbHUjtiDqlyyLLWEisCw-18" target="IbHUjtiDqlyyLLWEisCw-15" edge="1">
          <mxGeometry relative="1" as="geometry" />
        </mxCell>
        <mxCell id="IbHUjtiDqlyyLLWEisCw-20" style="edgeStyle=orthogonalEdgeStyle;rounded=0;orthogonalLoop=1;jettySize=auto;html=1;entryX=1;entryY=0.5;entryDx=0;entryDy=0;" parent="1" source="IbHUjtiDqlyyLLWEisCw-22" target="IbHUjtiDqlyyLLWEisCw-8" edge="1">
          <mxGeometry relative="1" as="geometry" />
        </mxCell>
        <mxCell id="IbHUjtiDqlyyLLWEisCw-21" style="edgeStyle=orthogonalEdgeStyle;rounded=0;orthogonalLoop=1;jettySize=auto;html=1;entryX=0;entryY=0.5;entryDx=0;entryDy=0;" parent="1" source="IbHUjtiDqlyyLLWEisCw-22" target="IbHUjtiDqlyyLLWEisCw-15" edge="1">
          <mxGeometry relative="1" as="geometry" />
        </mxCell>
        <mxCell id="IbHUjtiDqlyyLLWEisCw-22" value="pertenece" style="shape=rhombus;perimeter=rhombusPerimeter;whiteSpace=wrap;html=1;align=center;" parent="1" vertex="1">
          <mxGeometry x="317.5" y="1780" width="100" height="40" as="geometry" />
        </mxCell>
        <mxCell id="IbHUjtiDqlyyLLWEisCw-23" value="(1,N)" style="text;html=1;align=center;verticalAlign=middle;resizable=0;points=[];autosize=1;strokeColor=none;fillColor=none;" parent="1" vertex="1">
          <mxGeometry x="407.5" y="1770" width="50" height="30" as="geometry" />
        </mxCell>
        <mxCell id="IbHUjtiDqlyyLLWEisCw-24" value="(1,N)" style="text;html=1;align=center;verticalAlign=middle;resizable=0;points=[];autosize=1;strokeColor=none;fillColor=none;" parent="1" vertex="1">
          <mxGeometry x="272.5" y="1770" width="50" height="30" as="geometry" />
        </mxCell>
        <mxCell id="IbHUjtiDqlyyLLWEisCw-25" value="N:M" style="text;html=1;align=center;verticalAlign=middle;resizable=0;points=[];autosize=1;strokeColor=none;fillColor=none;" parent="1" vertex="1">
          <mxGeometry x="342.5" y="1750" width="50" height="30" as="geometry" />
        </mxCell>
        <mxCell id="IbHUjtiDqlyyLLWEisCw-28" style="edgeStyle=orthogonalEdgeStyle;rounded=0;orthogonalLoop=1;jettySize=auto;html=1;entryX=0;entryY=0;entryDx=0;entryDy=0;endArrow=none;endFill=0;" parent="1" source="IbHUjtiDqlyyLLWEisCw-26" target="IbHUjtiDqlyyLLWEisCw-22" edge="1">
          <mxGeometry relative="1" as="geometry" />
        </mxCell>
        <mxCell id="IbHUjtiDqlyyLLWEisCw-26" value="fecha_ingreso" style="ellipse;whiteSpace=wrap;html=1;align=center;" parent="1" vertex="1">
          <mxGeometry x="257.5" y="1700" width="102.5" height="40" as="geometry" />
        </mxCell>
        <mxCell id="IbHUjtiDqlyyLLWEisCw-29" value="Con lo que hemos hecho antes, el empleado no puede estar en un mismo departamento varias veces en diferentes fechas." style="text;html=1;align=left;verticalAlign=middle;resizable=0;points=[];autosize=1;strokeColor=none;fillColor=none;" parent="1" vertex="1">
          <mxGeometry x="40" y="1890" width="680" height="30" as="geometry" />
        </mxCell>
        <mxCell id="IbHUjtiDqlyyLLWEisCw-30" value="Para solucionar esto, crearemos un nuevo atributo, que será el identificativo, y las claves de las otras entidades pasaran a ser solo foráneas." style="text;html=1;align=left;verticalAlign=middle;resizable=0;points=[];autosize=1;strokeColor=none;fillColor=none;" parent="1" vertex="1">
          <mxGeometry x="40" y="1930" width="770" height="30" as="geometry" />
        </mxCell>
        <mxCell id="IbHUjtiDqlyyLLWEisCw-31" value="Empleado (&lt;u&gt;DNI&lt;/u&gt;, nombre, puesto)" style="text;html=1;align=left;verticalAlign=middle;resizable=0;points=[];autosize=1;strokeColor=none;fillColor=none;" parent="1" vertex="1">
          <mxGeometry x="40" y="2050" width="200" height="30" as="geometry" />
        </mxCell>
        <mxCell id="IbHUjtiDqlyyLLWEisCw-32" value="Departamento (&lt;u&gt;codigo&lt;/u&gt;, nombre)" style="text;html=1;align=left;verticalAlign=middle;resizable=0;points=[];autosize=1;strokeColor=none;fillColor=none;" parent="1" vertex="1">
          <mxGeometry x="40" y="2210" width="190" height="30" as="geometry" />
        </mxCell>
        <mxCell id="IbHUjtiDqlyyLLWEisCw-35" style="edgeStyle=orthogonalEdgeStyle;rounded=0;orthogonalLoop=1;jettySize=auto;html=1;" parent="1" source="IbHUjtiDqlyyLLWEisCw-33" target="IbHUjtiDqlyyLLWEisCw-32" edge="1">
          <mxGeometry relative="1" as="geometry">
            <Array as="points">
              <mxPoint x="370" y="2185" />
              <mxPoint x="135" y="2185" />
            </Array>
          </mxGeometry>
        </mxCell>
        <mxCell id="IbHUjtiDqlyyLLWEisCw-33" value="Empleado_departamento (&lt;u&gt;codigo&lt;/u&gt;, DNI_empleado, codigo_departamento, fecha_ingreso)" style="text;html=1;align=left;verticalAlign=middle;resizable=0;points=[];autosize=1;strokeColor=none;fillColor=none;" parent="1" vertex="1">
          <mxGeometry x="40" y="2130" width="500" height="30" as="geometry" />
        </mxCell>
        <mxCell id="IbHUjtiDqlyyLLWEisCw-34" style="edgeStyle=orthogonalEdgeStyle;rounded=0;orthogonalLoop=1;jettySize=auto;html=1;entryX=0.353;entryY=1.017;entryDx=0;entryDy=0;entryPerimeter=0;" parent="1" source="IbHUjtiDqlyyLLWEisCw-33" target="IbHUjtiDqlyyLLWEisCw-31" edge="1">
          <mxGeometry relative="1" as="geometry" />
        </mxCell>
        <mxCell id="IbHUjtiDqlyyLLWEisCw-36" value="Empleado" style="shape=table;startSize=30;container=1;collapsible=0;childLayout=tableLayout;fontStyle=1" parent="1" vertex="1">
          <mxGeometry x="40" y="2280" width="760" height="190" as="geometry" />
        </mxCell>
        <mxCell id="IbHUjtiDqlyyLLWEisCw-37" value="" style="shape=tableRow;horizontal=0;startSize=0;swimlaneHead=0;swimlaneBody=0;strokeColor=inherit;top=0;left=0;bottom=0;right=0;collapsible=0;dropTarget=0;fillColor=none;points=[[0,0.5],[1,0.5]];portConstraint=eastwest;" parent="IbHUjtiDqlyyLLWEisCw-36" vertex="1">
          <mxGeometry y="30" width="760" height="40" as="geometry" />
        </mxCell>
        <mxCell id="IbHUjtiDqlyyLLWEisCw-38" value="&lt;b&gt;Nombre&lt;/b&gt;" style="shape=partialRectangle;html=1;whiteSpace=wrap;connectable=0;strokeColor=inherit;overflow=hidden;fillColor=none;top=0;left=0;bottom=0;right=0;pointerEvents=1;" parent="IbHUjtiDqlyyLLWEisCw-37" vertex="1">
          <mxGeometry width="130" height="40" as="geometry">
            <mxRectangle width="130" height="40" as="alternateBounds" />
          </mxGeometry>
        </mxCell>
        <mxCell id="IbHUjtiDqlyyLLWEisCw-39" value="&lt;b&gt;Descripción&lt;/b&gt;" style="shape=partialRectangle;html=1;whiteSpace=wrap;connectable=0;strokeColor=inherit;overflow=hidden;fillColor=none;top=0;left=0;bottom=0;right=0;pointerEvents=1;" parent="IbHUjtiDqlyyLLWEisCw-37" vertex="1">
          <mxGeometry x="130" width="240" height="40" as="geometry">
            <mxRectangle width="240" height="40" as="alternateBounds" />
          </mxGeometry>
        </mxCell>
        <mxCell id="IbHUjtiDqlyyLLWEisCw-40" value="&lt;b&gt;Tipo&lt;/b&gt;" style="shape=partialRectangle;html=1;whiteSpace=wrap;connectable=0;strokeColor=inherit;overflow=hidden;fillColor=none;top=0;left=0;bottom=0;right=0;pointerEvents=1;" parent="IbHUjtiDqlyyLLWEisCw-37" vertex="1">
          <mxGeometry x="370" width="110" height="40" as="geometry">
            <mxRectangle width="110" height="40" as="alternateBounds" />
          </mxGeometry>
        </mxCell>
        <mxCell id="IbHUjtiDqlyyLLWEisCw-41" value="&lt;b&gt;Restricciones&lt;/b&gt;" style="shape=partialRectangle;html=1;whiteSpace=wrap;connectable=0;strokeColor=inherit;overflow=hidden;fillColor=none;top=0;left=0;bottom=0;right=0;pointerEvents=1;" parent="IbHUjtiDqlyyLLWEisCw-37" vertex="1">
          <mxGeometry x="480" width="280" height="40" as="geometry">
            <mxRectangle width="280" height="40" as="alternateBounds" />
          </mxGeometry>
        </mxCell>
        <mxCell id="IbHUjtiDqlyyLLWEisCw-42" value="" style="shape=tableRow;horizontal=0;startSize=0;swimlaneHead=0;swimlaneBody=0;strokeColor=inherit;top=0;left=0;bottom=0;right=0;collapsible=0;dropTarget=0;fillColor=none;points=[[0,0.5],[1,0.5]];portConstraint=eastwest;" parent="IbHUjtiDqlyyLLWEisCw-36" vertex="1">
          <mxGeometry y="70" width="760" height="40" as="geometry" />
        </mxCell>
        <mxCell id="IbHUjtiDqlyyLLWEisCw-43" value="DNI" style="shape=partialRectangle;html=1;whiteSpace=wrap;connectable=0;strokeColor=inherit;overflow=hidden;fillColor=none;top=0;left=0;bottom=0;right=0;pointerEvents=1;" parent="IbHUjtiDqlyyLLWEisCw-42" vertex="1">
          <mxGeometry width="130" height="40" as="geometry">
            <mxRectangle width="130" height="40" as="alternateBounds" />
          </mxGeometry>
        </mxCell>
        <mxCell id="IbHUjtiDqlyyLLWEisCw-44" value="DNI del empleado" style="shape=partialRectangle;html=1;whiteSpace=wrap;connectable=0;strokeColor=inherit;overflow=hidden;fillColor=none;top=0;left=0;bottom=0;right=0;pointerEvents=1;" parent="IbHUjtiDqlyyLLWEisCw-42" vertex="1">
          <mxGeometry x="130" width="240" height="40" as="geometry">
            <mxRectangle width="240" height="40" as="alternateBounds" />
          </mxGeometry>
        </mxCell>
        <mxCell id="IbHUjtiDqlyyLLWEisCw-45" value="Cadena" style="shape=partialRectangle;html=1;whiteSpace=wrap;connectable=0;strokeColor=inherit;overflow=hidden;fillColor=none;top=0;left=0;bottom=0;right=0;pointerEvents=1;" parent="IbHUjtiDqlyyLLWEisCw-42" vertex="1">
          <mxGeometry x="370" width="110" height="40" as="geometry">
            <mxRectangle width="110" height="40" as="alternateBounds" />
          </mxGeometry>
        </mxCell>
        <mxCell id="IbHUjtiDqlyyLLWEisCw-46" value="Clave primaria" style="shape=partialRectangle;html=1;whiteSpace=wrap;connectable=0;strokeColor=inherit;overflow=hidden;fillColor=none;top=0;left=0;bottom=0;right=0;pointerEvents=1;" parent="IbHUjtiDqlyyLLWEisCw-42" vertex="1">
          <mxGeometry x="480" width="280" height="40" as="geometry">
            <mxRectangle width="280" height="40" as="alternateBounds" />
          </mxGeometry>
        </mxCell>
        <mxCell id="IbHUjtiDqlyyLLWEisCw-47" style="shape=tableRow;horizontal=0;startSize=0;swimlaneHead=0;swimlaneBody=0;strokeColor=inherit;top=0;left=0;bottom=0;right=0;collapsible=0;dropTarget=0;fillColor=none;points=[[0,0.5],[1,0.5]];portConstraint=eastwest;" parent="IbHUjtiDqlyyLLWEisCw-36" vertex="1">
          <mxGeometry y="110" width="760" height="40" as="geometry" />
        </mxCell>
        <mxCell id="IbHUjtiDqlyyLLWEisCw-48" value="nombre" style="shape=partialRectangle;html=1;whiteSpace=wrap;connectable=0;strokeColor=inherit;overflow=hidden;fillColor=none;top=0;left=0;bottom=0;right=0;pointerEvents=1;" parent="IbHUjtiDqlyyLLWEisCw-47" vertex="1">
          <mxGeometry width="130" height="40" as="geometry">
            <mxRectangle width="130" height="40" as="alternateBounds" />
          </mxGeometry>
        </mxCell>
        <mxCell id="IbHUjtiDqlyyLLWEisCw-49" value="Nombre del empleado" style="shape=partialRectangle;html=1;whiteSpace=wrap;connectable=0;strokeColor=inherit;overflow=hidden;fillColor=none;top=0;left=0;bottom=0;right=0;pointerEvents=1;" parent="IbHUjtiDqlyyLLWEisCw-47" vertex="1">
          <mxGeometry x="130" width="240" height="40" as="geometry">
            <mxRectangle width="240" height="40" as="alternateBounds" />
          </mxGeometry>
        </mxCell>
        <mxCell id="IbHUjtiDqlyyLLWEisCw-50" value="Cadena" style="shape=partialRectangle;html=1;whiteSpace=wrap;connectable=0;strokeColor=inherit;overflow=hidden;fillColor=none;top=0;left=0;bottom=0;right=0;pointerEvents=1;" parent="IbHUjtiDqlyyLLWEisCw-47" vertex="1">
          <mxGeometry x="370" width="110" height="40" as="geometry">
            <mxRectangle width="110" height="40" as="alternateBounds" />
          </mxGeometry>
        </mxCell>
        <mxCell id="IbHUjtiDqlyyLLWEisCw-51" style="shape=partialRectangle;html=1;whiteSpace=wrap;connectable=0;strokeColor=inherit;overflow=hidden;fillColor=none;top=0;left=0;bottom=0;right=0;pointerEvents=1;" parent="IbHUjtiDqlyyLLWEisCw-47" vertex="1">
          <mxGeometry x="480" width="280" height="40" as="geometry">
            <mxRectangle width="280" height="40" as="alternateBounds" />
          </mxGeometry>
        </mxCell>
        <mxCell id="IbHUjtiDqlyyLLWEisCw-52" style="shape=tableRow;horizontal=0;startSize=0;swimlaneHead=0;swimlaneBody=0;strokeColor=inherit;top=0;left=0;bottom=0;right=0;collapsible=0;dropTarget=0;fillColor=none;points=[[0,0.5],[1,0.5]];portConstraint=eastwest;" parent="IbHUjtiDqlyyLLWEisCw-36" vertex="1">
          <mxGeometry y="150" width="760" height="40" as="geometry" />
        </mxCell>
        <mxCell id="IbHUjtiDqlyyLLWEisCw-53" value="puesto" style="shape=partialRectangle;html=1;whiteSpace=wrap;connectable=0;strokeColor=inherit;overflow=hidden;fillColor=none;top=0;left=0;bottom=0;right=0;pointerEvents=1;" parent="IbHUjtiDqlyyLLWEisCw-52" vertex="1">
          <mxGeometry width="130" height="40" as="geometry">
            <mxRectangle width="130" height="40" as="alternateBounds" />
          </mxGeometry>
        </mxCell>
        <mxCell id="IbHUjtiDqlyyLLWEisCw-54" value="Puesto del empleado" style="shape=partialRectangle;html=1;whiteSpace=wrap;connectable=0;strokeColor=inherit;overflow=hidden;fillColor=none;top=0;left=0;bottom=0;right=0;pointerEvents=1;" parent="IbHUjtiDqlyyLLWEisCw-52" vertex="1">
          <mxGeometry x="130" width="240" height="40" as="geometry">
            <mxRectangle width="240" height="40" as="alternateBounds" />
          </mxGeometry>
        </mxCell>
        <mxCell id="IbHUjtiDqlyyLLWEisCw-55" value="Cadena" style="shape=partialRectangle;html=1;whiteSpace=wrap;connectable=0;strokeColor=inherit;overflow=hidden;fillColor=none;top=0;left=0;bottom=0;right=0;pointerEvents=1;" parent="IbHUjtiDqlyyLLWEisCw-52" vertex="1">
          <mxGeometry x="370" width="110" height="40" as="geometry">
            <mxRectangle width="110" height="40" as="alternateBounds" />
          </mxGeometry>
        </mxCell>
        <mxCell id="IbHUjtiDqlyyLLWEisCw-56" value="" style="shape=partialRectangle;html=1;whiteSpace=wrap;connectable=0;strokeColor=inherit;overflow=hidden;fillColor=none;top=0;left=0;bottom=0;right=0;pointerEvents=1;" parent="IbHUjtiDqlyyLLWEisCw-52" vertex="1">
          <mxGeometry x="480" width="280" height="40" as="geometry">
            <mxRectangle width="280" height="40" as="alternateBounds" />
          </mxGeometry>
        </mxCell>
        <mxCell id="IbHUjtiDqlyyLLWEisCw-57" value="Departamento" style="shape=table;startSize=30;container=1;collapsible=0;childLayout=tableLayout;fontStyle=1" parent="1" vertex="1">
          <mxGeometry x="40" y="2800" width="760" height="150" as="geometry" />
        </mxCell>
        <mxCell id="IbHUjtiDqlyyLLWEisCw-58" value="" style="shape=tableRow;horizontal=0;startSize=0;swimlaneHead=0;swimlaneBody=0;strokeColor=inherit;top=0;left=0;bottom=0;right=0;collapsible=0;dropTarget=0;fillColor=none;points=[[0,0.5],[1,0.5]];portConstraint=eastwest;" parent="IbHUjtiDqlyyLLWEisCw-57" vertex="1">
          <mxGeometry y="30" width="760" height="40" as="geometry" />
        </mxCell>
        <mxCell id="IbHUjtiDqlyyLLWEisCw-59" value="&lt;b&gt;Nombre&lt;/b&gt;" style="shape=partialRectangle;html=1;whiteSpace=wrap;connectable=0;strokeColor=inherit;overflow=hidden;fillColor=none;top=0;left=0;bottom=0;right=0;pointerEvents=1;" parent="IbHUjtiDqlyyLLWEisCw-58" vertex="1">
          <mxGeometry width="130" height="40" as="geometry">
            <mxRectangle width="130" height="40" as="alternateBounds" />
          </mxGeometry>
        </mxCell>
        <mxCell id="IbHUjtiDqlyyLLWEisCw-60" value="&lt;b&gt;Descripción&lt;/b&gt;" style="shape=partialRectangle;html=1;whiteSpace=wrap;connectable=0;strokeColor=inherit;overflow=hidden;fillColor=none;top=0;left=0;bottom=0;right=0;pointerEvents=1;" parent="IbHUjtiDqlyyLLWEisCw-58" vertex="1">
          <mxGeometry x="130" width="240" height="40" as="geometry">
            <mxRectangle width="240" height="40" as="alternateBounds" />
          </mxGeometry>
        </mxCell>
        <mxCell id="IbHUjtiDqlyyLLWEisCw-61" value="&lt;b&gt;Tipo&lt;/b&gt;" style="shape=partialRectangle;html=1;whiteSpace=wrap;connectable=0;strokeColor=inherit;overflow=hidden;fillColor=none;top=0;left=0;bottom=0;right=0;pointerEvents=1;" parent="IbHUjtiDqlyyLLWEisCw-58" vertex="1">
          <mxGeometry x="370" width="110" height="40" as="geometry">
            <mxRectangle width="110" height="40" as="alternateBounds" />
          </mxGeometry>
        </mxCell>
        <mxCell id="IbHUjtiDqlyyLLWEisCw-62" value="&lt;b&gt;Restricciones&lt;/b&gt;" style="shape=partialRectangle;html=1;whiteSpace=wrap;connectable=0;strokeColor=inherit;overflow=hidden;fillColor=none;top=0;left=0;bottom=0;right=0;pointerEvents=1;" parent="IbHUjtiDqlyyLLWEisCw-58" vertex="1">
          <mxGeometry x="480" width="280" height="40" as="geometry">
            <mxRectangle width="280" height="40" as="alternateBounds" />
          </mxGeometry>
        </mxCell>
        <mxCell id="IbHUjtiDqlyyLLWEisCw-63" value="" style="shape=tableRow;horizontal=0;startSize=0;swimlaneHead=0;swimlaneBody=0;strokeColor=inherit;top=0;left=0;bottom=0;right=0;collapsible=0;dropTarget=0;fillColor=none;points=[[0,0.5],[1,0.5]];portConstraint=eastwest;" parent="IbHUjtiDqlyyLLWEisCw-57" vertex="1">
          <mxGeometry y="70" width="760" height="40" as="geometry" />
        </mxCell>
        <mxCell id="IbHUjtiDqlyyLLWEisCw-64" value="codigo" style="shape=partialRectangle;html=1;whiteSpace=wrap;connectable=0;strokeColor=inherit;overflow=hidden;fillColor=none;top=0;left=0;bottom=0;right=0;pointerEvents=1;" parent="IbHUjtiDqlyyLLWEisCw-63" vertex="1">
          <mxGeometry width="130" height="40" as="geometry">
            <mxRectangle width="130" height="40" as="alternateBounds" />
          </mxGeometry>
        </mxCell>
        <mxCell id="IbHUjtiDqlyyLLWEisCw-65" value="Código del departamento" style="shape=partialRectangle;html=1;whiteSpace=wrap;connectable=0;strokeColor=inherit;overflow=hidden;fillColor=none;top=0;left=0;bottom=0;right=0;pointerEvents=1;" parent="IbHUjtiDqlyyLLWEisCw-63" vertex="1">
          <mxGeometry x="130" width="240" height="40" as="geometry">
            <mxRectangle width="240" height="40" as="alternateBounds" />
          </mxGeometry>
        </mxCell>
        <mxCell id="IbHUjtiDqlyyLLWEisCw-66" value="Número" style="shape=partialRectangle;html=1;whiteSpace=wrap;connectable=0;strokeColor=inherit;overflow=hidden;fillColor=none;top=0;left=0;bottom=0;right=0;pointerEvents=1;" parent="IbHUjtiDqlyyLLWEisCw-63" vertex="1">
          <mxGeometry x="370" width="110" height="40" as="geometry">
            <mxRectangle width="110" height="40" as="alternateBounds" />
          </mxGeometry>
        </mxCell>
        <mxCell id="IbHUjtiDqlyyLLWEisCw-67" value="Clave primaria" style="shape=partialRectangle;html=1;whiteSpace=wrap;connectable=0;strokeColor=inherit;overflow=hidden;fillColor=none;top=0;left=0;bottom=0;right=0;pointerEvents=1;" parent="IbHUjtiDqlyyLLWEisCw-63" vertex="1">
          <mxGeometry x="480" width="280" height="40" as="geometry">
            <mxRectangle width="280" height="40" as="alternateBounds" />
          </mxGeometry>
        </mxCell>
        <mxCell id="IbHUjtiDqlyyLLWEisCw-68" style="shape=tableRow;horizontal=0;startSize=0;swimlaneHead=0;swimlaneBody=0;strokeColor=inherit;top=0;left=0;bottom=0;right=0;collapsible=0;dropTarget=0;fillColor=none;points=[[0,0.5],[1,0.5]];portConstraint=eastwest;" parent="IbHUjtiDqlyyLLWEisCw-57" vertex="1">
          <mxGeometry y="110" width="760" height="40" as="geometry" />
        </mxCell>
        <mxCell id="IbHUjtiDqlyyLLWEisCw-69" value="nombre" style="shape=partialRectangle;html=1;whiteSpace=wrap;connectable=0;strokeColor=inherit;overflow=hidden;fillColor=none;top=0;left=0;bottom=0;right=0;pointerEvents=1;" parent="IbHUjtiDqlyyLLWEisCw-68" vertex="1">
          <mxGeometry width="130" height="40" as="geometry">
            <mxRectangle width="130" height="40" as="alternateBounds" />
          </mxGeometry>
        </mxCell>
        <mxCell id="IbHUjtiDqlyyLLWEisCw-70" value="Nombre del departamento" style="shape=partialRectangle;html=1;whiteSpace=wrap;connectable=0;strokeColor=inherit;overflow=hidden;fillColor=none;top=0;left=0;bottom=0;right=0;pointerEvents=1;" parent="IbHUjtiDqlyyLLWEisCw-68" vertex="1">
          <mxGeometry x="130" width="240" height="40" as="geometry">
            <mxRectangle width="240" height="40" as="alternateBounds" />
          </mxGeometry>
        </mxCell>
        <mxCell id="IbHUjtiDqlyyLLWEisCw-71" value="Cadena" style="shape=partialRectangle;html=1;whiteSpace=wrap;connectable=0;strokeColor=inherit;overflow=hidden;fillColor=none;top=0;left=0;bottom=0;right=0;pointerEvents=1;" parent="IbHUjtiDqlyyLLWEisCw-68" vertex="1">
          <mxGeometry x="370" width="110" height="40" as="geometry">
            <mxRectangle width="110" height="40" as="alternateBounds" />
          </mxGeometry>
        </mxCell>
        <mxCell id="IbHUjtiDqlyyLLWEisCw-72" style="shape=partialRectangle;html=1;whiteSpace=wrap;connectable=0;strokeColor=inherit;overflow=hidden;fillColor=none;top=0;left=0;bottom=0;right=0;pointerEvents=1;" parent="IbHUjtiDqlyyLLWEisCw-68" vertex="1">
          <mxGeometry x="480" width="280" height="40" as="geometry">
            <mxRectangle width="280" height="40" as="alternateBounds" />
          </mxGeometry>
        </mxCell>
        <mxCell id="IbHUjtiDqlyyLLWEisCw-73" value="Empleado_departamento" style="shape=table;startSize=30;container=1;collapsible=0;childLayout=tableLayout;fontStyle=1" parent="1" vertex="1">
          <mxGeometry x="40" y="2520" width="760" height="230" as="geometry" />
        </mxCell>
        <mxCell id="IbHUjtiDqlyyLLWEisCw-74" value="" style="shape=tableRow;horizontal=0;startSize=0;swimlaneHead=0;swimlaneBody=0;strokeColor=inherit;top=0;left=0;bottom=0;right=0;collapsible=0;dropTarget=0;fillColor=none;points=[[0,0.5],[1,0.5]];portConstraint=eastwest;" parent="IbHUjtiDqlyyLLWEisCw-73" vertex="1">
          <mxGeometry y="30" width="760" height="40" as="geometry" />
        </mxCell>
        <mxCell id="IbHUjtiDqlyyLLWEisCw-75" value="&lt;b&gt;Nombre&lt;/b&gt;" style="shape=partialRectangle;html=1;whiteSpace=wrap;connectable=0;strokeColor=inherit;overflow=hidden;fillColor=none;top=0;left=0;bottom=0;right=0;pointerEvents=1;" parent="IbHUjtiDqlyyLLWEisCw-74" vertex="1">
          <mxGeometry width="130" height="40" as="geometry">
            <mxRectangle width="130" height="40" as="alternateBounds" />
          </mxGeometry>
        </mxCell>
        <mxCell id="IbHUjtiDqlyyLLWEisCw-76" value="&lt;b&gt;Descripción&lt;/b&gt;" style="shape=partialRectangle;html=1;whiteSpace=wrap;connectable=0;strokeColor=inherit;overflow=hidden;fillColor=none;top=0;left=0;bottom=0;right=0;pointerEvents=1;" parent="IbHUjtiDqlyyLLWEisCw-74" vertex="1">
          <mxGeometry x="130" width="240" height="40" as="geometry">
            <mxRectangle width="240" height="40" as="alternateBounds" />
          </mxGeometry>
        </mxCell>
        <mxCell id="IbHUjtiDqlyyLLWEisCw-77" value="&lt;b&gt;Tipo&lt;/b&gt;" style="shape=partialRectangle;html=1;whiteSpace=wrap;connectable=0;strokeColor=inherit;overflow=hidden;fillColor=none;top=0;left=0;bottom=0;right=0;pointerEvents=1;" parent="IbHUjtiDqlyyLLWEisCw-74" vertex="1">
          <mxGeometry x="370" width="110" height="40" as="geometry">
            <mxRectangle width="110" height="40" as="alternateBounds" />
          </mxGeometry>
        </mxCell>
        <mxCell id="IbHUjtiDqlyyLLWEisCw-78" value="&lt;b&gt;Restricciones&lt;/b&gt;" style="shape=partialRectangle;html=1;whiteSpace=wrap;connectable=0;strokeColor=inherit;overflow=hidden;fillColor=none;top=0;left=0;bottom=0;right=0;pointerEvents=1;" parent="IbHUjtiDqlyyLLWEisCw-74" vertex="1">
          <mxGeometry x="480" width="280" height="40" as="geometry">
            <mxRectangle width="280" height="40" as="alternateBounds" />
          </mxGeometry>
        </mxCell>
        <mxCell id="IbHUjtiDqlyyLLWEisCw-104" style="shape=tableRow;horizontal=0;startSize=0;swimlaneHead=0;swimlaneBody=0;strokeColor=inherit;top=0;left=0;bottom=0;right=0;collapsible=0;dropTarget=0;fillColor=none;points=[[0,0.5],[1,0.5]];portConstraint=eastwest;" parent="IbHUjtiDqlyyLLWEisCw-73" vertex="1">
          <mxGeometry y="70" width="760" height="40" as="geometry" />
        </mxCell>
        <mxCell id="IbHUjtiDqlyyLLWEisCw-105" value="codigo" style="shape=partialRectangle;html=1;whiteSpace=wrap;connectable=0;strokeColor=inherit;overflow=hidden;fillColor=none;top=0;left=0;bottom=0;right=0;pointerEvents=1;" parent="IbHUjtiDqlyyLLWEisCw-104" vertex="1">
          <mxGeometry width="130" height="40" as="geometry">
            <mxRectangle width="130" height="40" as="alternateBounds" />
          </mxGeometry>
        </mxCell>
        <mxCell id="IbHUjtiDqlyyLLWEisCw-106" value="Código del ingreso del empleado en el departamento" style="shape=partialRectangle;html=1;whiteSpace=wrap;connectable=0;strokeColor=inherit;overflow=hidden;fillColor=none;top=0;left=0;bottom=0;right=0;pointerEvents=1;" parent="IbHUjtiDqlyyLLWEisCw-104" vertex="1">
          <mxGeometry x="130" width="240" height="40" as="geometry">
            <mxRectangle width="240" height="40" as="alternateBounds" />
          </mxGeometry>
        </mxCell>
        <mxCell id="IbHUjtiDqlyyLLWEisCw-107" value="Número" style="shape=partialRectangle;html=1;whiteSpace=wrap;connectable=0;strokeColor=inherit;overflow=hidden;fillColor=none;top=0;left=0;bottom=0;right=0;pointerEvents=1;" parent="IbHUjtiDqlyyLLWEisCw-104" vertex="1">
          <mxGeometry x="370" width="110" height="40" as="geometry">
            <mxRectangle width="110" height="40" as="alternateBounds" />
          </mxGeometry>
        </mxCell>
        <mxCell id="IbHUjtiDqlyyLLWEisCw-108" value="Clave primaria" style="shape=partialRectangle;html=1;whiteSpace=wrap;connectable=0;strokeColor=inherit;overflow=hidden;fillColor=none;top=0;left=0;bottom=0;right=0;pointerEvents=1;" parent="IbHUjtiDqlyyLLWEisCw-104" vertex="1">
          <mxGeometry x="480" width="280" height="40" as="geometry">
            <mxRectangle width="280" height="40" as="alternateBounds" />
          </mxGeometry>
        </mxCell>
        <mxCell id="IbHUjtiDqlyyLLWEisCw-79" value="" style="shape=tableRow;horizontal=0;startSize=0;swimlaneHead=0;swimlaneBody=0;strokeColor=inherit;top=0;left=0;bottom=0;right=0;collapsible=0;dropTarget=0;fillColor=none;points=[[0,0.5],[1,0.5]];portConstraint=eastwest;" parent="IbHUjtiDqlyyLLWEisCw-73" vertex="1">
          <mxGeometry y="110" width="760" height="40" as="geometry" />
        </mxCell>
        <mxCell id="IbHUjtiDqlyyLLWEisCw-80" value="DNI_empleado" style="shape=partialRectangle;html=1;whiteSpace=wrap;connectable=0;strokeColor=inherit;overflow=hidden;fillColor=none;top=0;left=0;bottom=0;right=0;pointerEvents=1;" parent="IbHUjtiDqlyyLLWEisCw-79" vertex="1">
          <mxGeometry width="130" height="40" as="geometry">
            <mxRectangle width="130" height="40" as="alternateBounds" />
          </mxGeometry>
        </mxCell>
        <mxCell id="IbHUjtiDqlyyLLWEisCw-81" value="DNI del empleado" style="shape=partialRectangle;html=1;whiteSpace=wrap;connectable=0;strokeColor=inherit;overflow=hidden;fillColor=none;top=0;left=0;bottom=0;right=0;pointerEvents=1;" parent="IbHUjtiDqlyyLLWEisCw-79" vertex="1">
          <mxGeometry x="130" width="240" height="40" as="geometry">
            <mxRectangle width="240" height="40" as="alternateBounds" />
          </mxGeometry>
        </mxCell>
        <mxCell id="IbHUjtiDqlyyLLWEisCw-82" value="Cadena" style="shape=partialRectangle;html=1;whiteSpace=wrap;connectable=0;strokeColor=inherit;overflow=hidden;fillColor=none;top=0;left=0;bottom=0;right=0;pointerEvents=1;" parent="IbHUjtiDqlyyLLWEisCw-79" vertex="1">
          <mxGeometry x="370" width="110" height="40" as="geometry">
            <mxRectangle width="110" height="40" as="alternateBounds" />
          </mxGeometry>
        </mxCell>
        <mxCell id="IbHUjtiDqlyyLLWEisCw-83" value="&lt;div&gt;Clave foránea (empleado =&amp;gt; DNI)&lt;/div&gt;" style="shape=partialRectangle;html=1;whiteSpace=wrap;connectable=0;strokeColor=inherit;overflow=hidden;fillColor=none;top=0;left=0;bottom=0;right=0;pointerEvents=1;" parent="IbHUjtiDqlyyLLWEisCw-79" vertex="1">
          <mxGeometry x="480" width="280" height="40" as="geometry">
            <mxRectangle width="280" height="40" as="alternateBounds" />
          </mxGeometry>
        </mxCell>
        <mxCell id="IbHUjtiDqlyyLLWEisCw-84" style="shape=tableRow;horizontal=0;startSize=0;swimlaneHead=0;swimlaneBody=0;strokeColor=inherit;top=0;left=0;bottom=0;right=0;collapsible=0;dropTarget=0;fillColor=none;points=[[0,0.5],[1,0.5]];portConstraint=eastwest;" parent="IbHUjtiDqlyyLLWEisCw-73" vertex="1">
          <mxGeometry y="150" width="760" height="40" as="geometry" />
        </mxCell>
        <mxCell id="IbHUjtiDqlyyLLWEisCw-85" value="codigo_departamento" style="shape=partialRectangle;html=1;whiteSpace=wrap;connectable=0;strokeColor=inherit;overflow=hidden;fillColor=none;top=0;left=0;bottom=0;right=0;pointerEvents=1;" parent="IbHUjtiDqlyyLLWEisCw-84" vertex="1">
          <mxGeometry width="130" height="40" as="geometry">
            <mxRectangle width="130" height="40" as="alternateBounds" />
          </mxGeometry>
        </mxCell>
        <mxCell id="IbHUjtiDqlyyLLWEisCw-86" value="Código del departamento" style="shape=partialRectangle;html=1;whiteSpace=wrap;connectable=0;strokeColor=inherit;overflow=hidden;fillColor=none;top=0;left=0;bottom=0;right=0;pointerEvents=1;" parent="IbHUjtiDqlyyLLWEisCw-84" vertex="1">
          <mxGeometry x="130" width="240" height="40" as="geometry">
            <mxRectangle width="240" height="40" as="alternateBounds" />
          </mxGeometry>
        </mxCell>
        <mxCell id="IbHUjtiDqlyyLLWEisCw-87" value="Número" style="shape=partialRectangle;html=1;whiteSpace=wrap;connectable=0;strokeColor=inherit;overflow=hidden;fillColor=none;top=0;left=0;bottom=0;right=0;pointerEvents=1;" parent="IbHUjtiDqlyyLLWEisCw-84" vertex="1">
          <mxGeometry x="370" width="110" height="40" as="geometry">
            <mxRectangle width="110" height="40" as="alternateBounds" />
          </mxGeometry>
        </mxCell>
        <mxCell id="IbHUjtiDqlyyLLWEisCw-88" value="&lt;div&gt;Clave foránea (departamento =&amp;gt; codigo)&lt;/div&gt;" style="shape=partialRectangle;html=1;whiteSpace=wrap;connectable=0;strokeColor=inherit;overflow=hidden;fillColor=none;top=0;left=0;bottom=0;right=0;pointerEvents=1;" parent="IbHUjtiDqlyyLLWEisCw-84" vertex="1">
          <mxGeometry x="480" width="280" height="40" as="geometry">
            <mxRectangle width="280" height="40" as="alternateBounds" />
          </mxGeometry>
        </mxCell>
        <mxCell id="IbHUjtiDqlyyLLWEisCw-109" style="shape=tableRow;horizontal=0;startSize=0;swimlaneHead=0;swimlaneBody=0;strokeColor=inherit;top=0;left=0;bottom=0;right=0;collapsible=0;dropTarget=0;fillColor=none;points=[[0,0.5],[1,0.5]];portConstraint=eastwest;" parent="IbHUjtiDqlyyLLWEisCw-73" vertex="1">
          <mxGeometry y="190" width="760" height="40" as="geometry" />
        </mxCell>
        <mxCell id="IbHUjtiDqlyyLLWEisCw-110" value="fecha_ingreso" style="shape=partialRectangle;html=1;whiteSpace=wrap;connectable=0;strokeColor=inherit;overflow=hidden;fillColor=none;top=0;left=0;bottom=0;right=0;pointerEvents=1;" parent="IbHUjtiDqlyyLLWEisCw-109" vertex="1">
          <mxGeometry width="130" height="40" as="geometry">
            <mxRectangle width="130" height="40" as="alternateBounds" />
          </mxGeometry>
        </mxCell>
        <mxCell id="IbHUjtiDqlyyLLWEisCw-111" value="Fecha en la que ingreso el empleado en el departamento" style="shape=partialRectangle;html=1;whiteSpace=wrap;connectable=0;strokeColor=inherit;overflow=hidden;fillColor=none;top=0;left=0;bottom=0;right=0;pointerEvents=1;" parent="IbHUjtiDqlyyLLWEisCw-109" vertex="1">
          <mxGeometry x="130" width="240" height="40" as="geometry">
            <mxRectangle width="240" height="40" as="alternateBounds" />
          </mxGeometry>
        </mxCell>
        <mxCell id="IbHUjtiDqlyyLLWEisCw-112" value="Fecha" style="shape=partialRectangle;html=1;whiteSpace=wrap;connectable=0;strokeColor=inherit;overflow=hidden;fillColor=none;top=0;left=0;bottom=0;right=0;pointerEvents=1;" parent="IbHUjtiDqlyyLLWEisCw-109" vertex="1">
          <mxGeometry x="370" width="110" height="40" as="geometry">
            <mxRectangle width="110" height="40" as="alternateBounds" />
          </mxGeometry>
        </mxCell>
        <mxCell id="IbHUjtiDqlyyLLWEisCw-113" style="shape=partialRectangle;html=1;whiteSpace=wrap;connectable=0;strokeColor=inherit;overflow=hidden;fillColor=none;top=0;left=0;bottom=0;right=0;pointerEvents=1;" parent="IbHUjtiDqlyyLLWEisCw-109" vertex="1">
          <mxGeometry x="480" width="280" height="40" as="geometry">
            <mxRectangle width="280" height="40" as="alternateBounds" />
          </mxGeometry>
        </mxCell>
        <mxCell id="IbHUjtiDqlyyLLWEisCw-114" value="Esto no es siempre es necesario, según las necesidades del diseño es recomendable usarlo o no." style="text;html=1;align=left;verticalAlign=middle;resizable=0;points=[];autosize=1;strokeColor=none;fillColor=none;" parent="1" vertex="1">
          <mxGeometry x="40" y="1970" width="550" height="30" as="geometry" />
        </mxCell>
        <mxCell id="QMc2Sg5MZYXAnYzkRClg-1" value="Otra opcion valida, es hacer que la fecha sea identificativa junto a las claves que nos traemos de las otras entidades." style="text;html=1;align=left;verticalAlign=middle;resizable=0;points=[];autosize=1;strokeColor=none;fillColor=none;" parent="1" vertex="1">
          <mxGeometry x="40" y="3010" width="650" height="30" as="geometry" />
        </mxCell>
        <mxCell id="QMc2Sg5MZYXAnYzkRClg-3" value="Empleado (&lt;u&gt;DNI&lt;/u&gt;, nombre, puesto)" style="text;html=1;align=left;verticalAlign=middle;resizable=0;points=[];autosize=1;strokeColor=none;fillColor=none;" parent="1" vertex="1">
          <mxGeometry x="40" y="3090" width="200" height="30" as="geometry" />
        </mxCell>
        <mxCell id="QMc2Sg5MZYXAnYzkRClg-4" value="Departamento (&lt;u&gt;codigo&lt;/u&gt;, nombre)" style="text;html=1;align=left;verticalAlign=middle;resizable=0;points=[];autosize=1;strokeColor=none;fillColor=none;" parent="1" vertex="1">
          <mxGeometry x="40" y="3250" width="190" height="30" as="geometry" />
        </mxCell>
        <mxCell id="QMc2Sg5MZYXAnYzkRClg-5" style="edgeStyle=orthogonalEdgeStyle;rounded=0;orthogonalLoop=1;jettySize=auto;html=1;" parent="1" source="QMc2Sg5MZYXAnYzkRClg-6" target="QMc2Sg5MZYXAnYzkRClg-4" edge="1">
          <mxGeometry relative="1" as="geometry">
            <Array as="points">
              <mxPoint x="320" y="3225" />
              <mxPoint x="135" y="3225" />
            </Array>
          </mxGeometry>
        </mxCell>
        <mxCell id="QMc2Sg5MZYXAnYzkRClg-6" value="Empleado_departamento (&lt;u&gt;DNI_empleado&lt;/u&gt;, &lt;u&gt;codigo_departamento,&lt;/u&gt; &lt;u&gt;fecha_ingreso&lt;/u&gt;)" style="text;html=1;align=left;verticalAlign=middle;resizable=0;points=[];autosize=1;strokeColor=none;fillColor=none;" parent="1" vertex="1">
          <mxGeometry x="40" y="3170" width="450" height="30" as="geometry" />
        </mxCell>
        <mxCell id="QMc2Sg5MZYXAnYzkRClg-7" style="edgeStyle=orthogonalEdgeStyle;rounded=0;orthogonalLoop=1;jettySize=auto;html=1;entryX=0.231;entryY=0.967;entryDx=0;entryDy=0;entryPerimeter=0;" parent="1" source="QMc2Sg5MZYXAnYzkRClg-6" target="QMc2Sg5MZYXAnYzkRClg-3" edge="1">
          <mxGeometry relative="1" as="geometry" />
        </mxCell>
        <mxCell id="QMc2Sg5MZYXAnYzkRClg-8" value="Empleado" style="shape=table;startSize=30;container=1;collapsible=0;childLayout=tableLayout;fontStyle=1" parent="1" vertex="1">
          <mxGeometry x="40" y="3320" width="760" height="190" as="geometry" />
        </mxCell>
        <mxCell id="QMc2Sg5MZYXAnYzkRClg-9" value="" style="shape=tableRow;horizontal=0;startSize=0;swimlaneHead=0;swimlaneBody=0;strokeColor=inherit;top=0;left=0;bottom=0;right=0;collapsible=0;dropTarget=0;fillColor=none;points=[[0,0.5],[1,0.5]];portConstraint=eastwest;" parent="QMc2Sg5MZYXAnYzkRClg-8" vertex="1">
          <mxGeometry y="30" width="760" height="40" as="geometry" />
        </mxCell>
        <mxCell id="QMc2Sg5MZYXAnYzkRClg-10" value="&lt;b&gt;Nombre&lt;/b&gt;" style="shape=partialRectangle;html=1;whiteSpace=wrap;connectable=0;strokeColor=inherit;overflow=hidden;fillColor=none;top=0;left=0;bottom=0;right=0;pointerEvents=1;" parent="QMc2Sg5MZYXAnYzkRClg-9" vertex="1">
          <mxGeometry width="130" height="40" as="geometry">
            <mxRectangle width="130" height="40" as="alternateBounds" />
          </mxGeometry>
        </mxCell>
        <mxCell id="QMc2Sg5MZYXAnYzkRClg-11" value="&lt;b&gt;Descripción&lt;/b&gt;" style="shape=partialRectangle;html=1;whiteSpace=wrap;connectable=0;strokeColor=inherit;overflow=hidden;fillColor=none;top=0;left=0;bottom=0;right=0;pointerEvents=1;" parent="QMc2Sg5MZYXAnYzkRClg-9" vertex="1">
          <mxGeometry x="130" width="240" height="40" as="geometry">
            <mxRectangle width="240" height="40" as="alternateBounds" />
          </mxGeometry>
        </mxCell>
        <mxCell id="QMc2Sg5MZYXAnYzkRClg-12" value="&lt;b&gt;Tipo&lt;/b&gt;" style="shape=partialRectangle;html=1;whiteSpace=wrap;connectable=0;strokeColor=inherit;overflow=hidden;fillColor=none;top=0;left=0;bottom=0;right=0;pointerEvents=1;" parent="QMc2Sg5MZYXAnYzkRClg-9" vertex="1">
          <mxGeometry x="370" width="110" height="40" as="geometry">
            <mxRectangle width="110" height="40" as="alternateBounds" />
          </mxGeometry>
        </mxCell>
        <mxCell id="QMc2Sg5MZYXAnYzkRClg-13" value="&lt;b&gt;Restricciones&lt;/b&gt;" style="shape=partialRectangle;html=1;whiteSpace=wrap;connectable=0;strokeColor=inherit;overflow=hidden;fillColor=none;top=0;left=0;bottom=0;right=0;pointerEvents=1;" parent="QMc2Sg5MZYXAnYzkRClg-9" vertex="1">
          <mxGeometry x="480" width="280" height="40" as="geometry">
            <mxRectangle width="280" height="40" as="alternateBounds" />
          </mxGeometry>
        </mxCell>
        <mxCell id="QMc2Sg5MZYXAnYzkRClg-14" value="" style="shape=tableRow;horizontal=0;startSize=0;swimlaneHead=0;swimlaneBody=0;strokeColor=inherit;top=0;left=0;bottom=0;right=0;collapsible=0;dropTarget=0;fillColor=none;points=[[0,0.5],[1,0.5]];portConstraint=eastwest;" parent="QMc2Sg5MZYXAnYzkRClg-8" vertex="1">
          <mxGeometry y="70" width="760" height="40" as="geometry" />
        </mxCell>
        <mxCell id="QMc2Sg5MZYXAnYzkRClg-15" value="DNI" style="shape=partialRectangle;html=1;whiteSpace=wrap;connectable=0;strokeColor=inherit;overflow=hidden;fillColor=none;top=0;left=0;bottom=0;right=0;pointerEvents=1;" parent="QMc2Sg5MZYXAnYzkRClg-14" vertex="1">
          <mxGeometry width="130" height="40" as="geometry">
            <mxRectangle width="130" height="40" as="alternateBounds" />
          </mxGeometry>
        </mxCell>
        <mxCell id="QMc2Sg5MZYXAnYzkRClg-16" value="DNI del empleado" style="shape=partialRectangle;html=1;whiteSpace=wrap;connectable=0;strokeColor=inherit;overflow=hidden;fillColor=none;top=0;left=0;bottom=0;right=0;pointerEvents=1;" parent="QMc2Sg5MZYXAnYzkRClg-14" vertex="1">
          <mxGeometry x="130" width="240" height="40" as="geometry">
            <mxRectangle width="240" height="40" as="alternateBounds" />
          </mxGeometry>
        </mxCell>
        <mxCell id="QMc2Sg5MZYXAnYzkRClg-17" value="Cadena" style="shape=partialRectangle;html=1;whiteSpace=wrap;connectable=0;strokeColor=inherit;overflow=hidden;fillColor=none;top=0;left=0;bottom=0;right=0;pointerEvents=1;" parent="QMc2Sg5MZYXAnYzkRClg-14" vertex="1">
          <mxGeometry x="370" width="110" height="40" as="geometry">
            <mxRectangle width="110" height="40" as="alternateBounds" />
          </mxGeometry>
        </mxCell>
        <mxCell id="QMc2Sg5MZYXAnYzkRClg-18" value="Clave primaria" style="shape=partialRectangle;html=1;whiteSpace=wrap;connectable=0;strokeColor=inherit;overflow=hidden;fillColor=none;top=0;left=0;bottom=0;right=0;pointerEvents=1;" parent="QMc2Sg5MZYXAnYzkRClg-14" vertex="1">
          <mxGeometry x="480" width="280" height="40" as="geometry">
            <mxRectangle width="280" height="40" as="alternateBounds" />
          </mxGeometry>
        </mxCell>
        <mxCell id="QMc2Sg5MZYXAnYzkRClg-19" style="shape=tableRow;horizontal=0;startSize=0;swimlaneHead=0;swimlaneBody=0;strokeColor=inherit;top=0;left=0;bottom=0;right=0;collapsible=0;dropTarget=0;fillColor=none;points=[[0,0.5],[1,0.5]];portConstraint=eastwest;" parent="QMc2Sg5MZYXAnYzkRClg-8" vertex="1">
          <mxGeometry y="110" width="760" height="40" as="geometry" />
        </mxCell>
        <mxCell id="QMc2Sg5MZYXAnYzkRClg-20" value="nombre" style="shape=partialRectangle;html=1;whiteSpace=wrap;connectable=0;strokeColor=inherit;overflow=hidden;fillColor=none;top=0;left=0;bottom=0;right=0;pointerEvents=1;" parent="QMc2Sg5MZYXAnYzkRClg-19" vertex="1">
          <mxGeometry width="130" height="40" as="geometry">
            <mxRectangle width="130" height="40" as="alternateBounds" />
          </mxGeometry>
        </mxCell>
        <mxCell id="QMc2Sg5MZYXAnYzkRClg-21" value="Nombre del empleado" style="shape=partialRectangle;html=1;whiteSpace=wrap;connectable=0;strokeColor=inherit;overflow=hidden;fillColor=none;top=0;left=0;bottom=0;right=0;pointerEvents=1;" parent="QMc2Sg5MZYXAnYzkRClg-19" vertex="1">
          <mxGeometry x="130" width="240" height="40" as="geometry">
            <mxRectangle width="240" height="40" as="alternateBounds" />
          </mxGeometry>
        </mxCell>
        <mxCell id="QMc2Sg5MZYXAnYzkRClg-22" value="Cadena" style="shape=partialRectangle;html=1;whiteSpace=wrap;connectable=0;strokeColor=inherit;overflow=hidden;fillColor=none;top=0;left=0;bottom=0;right=0;pointerEvents=1;" parent="QMc2Sg5MZYXAnYzkRClg-19" vertex="1">
          <mxGeometry x="370" width="110" height="40" as="geometry">
            <mxRectangle width="110" height="40" as="alternateBounds" />
          </mxGeometry>
        </mxCell>
        <mxCell id="QMc2Sg5MZYXAnYzkRClg-23" style="shape=partialRectangle;html=1;whiteSpace=wrap;connectable=0;strokeColor=inherit;overflow=hidden;fillColor=none;top=0;left=0;bottom=0;right=0;pointerEvents=1;" parent="QMc2Sg5MZYXAnYzkRClg-19" vertex="1">
          <mxGeometry x="480" width="280" height="40" as="geometry">
            <mxRectangle width="280" height="40" as="alternateBounds" />
          </mxGeometry>
        </mxCell>
        <mxCell id="QMc2Sg5MZYXAnYzkRClg-24" style="shape=tableRow;horizontal=0;startSize=0;swimlaneHead=0;swimlaneBody=0;strokeColor=inherit;top=0;left=0;bottom=0;right=0;collapsible=0;dropTarget=0;fillColor=none;points=[[0,0.5],[1,0.5]];portConstraint=eastwest;" parent="QMc2Sg5MZYXAnYzkRClg-8" vertex="1">
          <mxGeometry y="150" width="760" height="40" as="geometry" />
        </mxCell>
        <mxCell id="QMc2Sg5MZYXAnYzkRClg-25" value="puesto" style="shape=partialRectangle;html=1;whiteSpace=wrap;connectable=0;strokeColor=inherit;overflow=hidden;fillColor=none;top=0;left=0;bottom=0;right=0;pointerEvents=1;" parent="QMc2Sg5MZYXAnYzkRClg-24" vertex="1">
          <mxGeometry width="130" height="40" as="geometry">
            <mxRectangle width="130" height="40" as="alternateBounds" />
          </mxGeometry>
        </mxCell>
        <mxCell id="QMc2Sg5MZYXAnYzkRClg-26" value="Puesto del empleado" style="shape=partialRectangle;html=1;whiteSpace=wrap;connectable=0;strokeColor=inherit;overflow=hidden;fillColor=none;top=0;left=0;bottom=0;right=0;pointerEvents=1;" parent="QMc2Sg5MZYXAnYzkRClg-24" vertex="1">
          <mxGeometry x="130" width="240" height="40" as="geometry">
            <mxRectangle width="240" height="40" as="alternateBounds" />
          </mxGeometry>
        </mxCell>
        <mxCell id="QMc2Sg5MZYXAnYzkRClg-27" value="Cadena" style="shape=partialRectangle;html=1;whiteSpace=wrap;connectable=0;strokeColor=inherit;overflow=hidden;fillColor=none;top=0;left=0;bottom=0;right=0;pointerEvents=1;" parent="QMc2Sg5MZYXAnYzkRClg-24" vertex="1">
          <mxGeometry x="370" width="110" height="40" as="geometry">
            <mxRectangle width="110" height="40" as="alternateBounds" />
          </mxGeometry>
        </mxCell>
        <mxCell id="QMc2Sg5MZYXAnYzkRClg-28" value="" style="shape=partialRectangle;html=1;whiteSpace=wrap;connectable=0;strokeColor=inherit;overflow=hidden;fillColor=none;top=0;left=0;bottom=0;right=0;pointerEvents=1;" parent="QMc2Sg5MZYXAnYzkRClg-24" vertex="1">
          <mxGeometry x="480" width="280" height="40" as="geometry">
            <mxRectangle width="280" height="40" as="alternateBounds" />
          </mxGeometry>
        </mxCell>
        <mxCell id="QMc2Sg5MZYXAnYzkRClg-29" value="Departamento" style="shape=table;startSize=30;container=1;collapsible=0;childLayout=tableLayout;fontStyle=1" parent="1" vertex="1">
          <mxGeometry x="40" y="3800" width="760" height="150" as="geometry" />
        </mxCell>
        <mxCell id="QMc2Sg5MZYXAnYzkRClg-30" value="" style="shape=tableRow;horizontal=0;startSize=0;swimlaneHead=0;swimlaneBody=0;strokeColor=inherit;top=0;left=0;bottom=0;right=0;collapsible=0;dropTarget=0;fillColor=none;points=[[0,0.5],[1,0.5]];portConstraint=eastwest;" parent="QMc2Sg5MZYXAnYzkRClg-29" vertex="1">
          <mxGeometry y="30" width="760" height="40" as="geometry" />
        </mxCell>
        <mxCell id="QMc2Sg5MZYXAnYzkRClg-31" value="&lt;b&gt;Nombre&lt;/b&gt;" style="shape=partialRectangle;html=1;whiteSpace=wrap;connectable=0;strokeColor=inherit;overflow=hidden;fillColor=none;top=0;left=0;bottom=0;right=0;pointerEvents=1;" parent="QMc2Sg5MZYXAnYzkRClg-30" vertex="1">
          <mxGeometry width="130" height="40" as="geometry">
            <mxRectangle width="130" height="40" as="alternateBounds" />
          </mxGeometry>
        </mxCell>
        <mxCell id="QMc2Sg5MZYXAnYzkRClg-32" value="&lt;b&gt;Descripción&lt;/b&gt;" style="shape=partialRectangle;html=1;whiteSpace=wrap;connectable=0;strokeColor=inherit;overflow=hidden;fillColor=none;top=0;left=0;bottom=0;right=0;pointerEvents=1;" parent="QMc2Sg5MZYXAnYzkRClg-30" vertex="1">
          <mxGeometry x="130" width="240" height="40" as="geometry">
            <mxRectangle width="240" height="40" as="alternateBounds" />
          </mxGeometry>
        </mxCell>
        <mxCell id="QMc2Sg5MZYXAnYzkRClg-33" value="&lt;b&gt;Tipo&lt;/b&gt;" style="shape=partialRectangle;html=1;whiteSpace=wrap;connectable=0;strokeColor=inherit;overflow=hidden;fillColor=none;top=0;left=0;bottom=0;right=0;pointerEvents=1;" parent="QMc2Sg5MZYXAnYzkRClg-30" vertex="1">
          <mxGeometry x="370" width="110" height="40" as="geometry">
            <mxRectangle width="110" height="40" as="alternateBounds" />
          </mxGeometry>
        </mxCell>
        <mxCell id="QMc2Sg5MZYXAnYzkRClg-34" value="&lt;b&gt;Restricciones&lt;/b&gt;" style="shape=partialRectangle;html=1;whiteSpace=wrap;connectable=0;strokeColor=inherit;overflow=hidden;fillColor=none;top=0;left=0;bottom=0;right=0;pointerEvents=1;" parent="QMc2Sg5MZYXAnYzkRClg-30" vertex="1">
          <mxGeometry x="480" width="280" height="40" as="geometry">
            <mxRectangle width="280" height="40" as="alternateBounds" />
          </mxGeometry>
        </mxCell>
        <mxCell id="QMc2Sg5MZYXAnYzkRClg-35" value="" style="shape=tableRow;horizontal=0;startSize=0;swimlaneHead=0;swimlaneBody=0;strokeColor=inherit;top=0;left=0;bottom=0;right=0;collapsible=0;dropTarget=0;fillColor=none;points=[[0,0.5],[1,0.5]];portConstraint=eastwest;" parent="QMc2Sg5MZYXAnYzkRClg-29" vertex="1">
          <mxGeometry y="70" width="760" height="40" as="geometry" />
        </mxCell>
        <mxCell id="QMc2Sg5MZYXAnYzkRClg-36" value="codigo" style="shape=partialRectangle;html=1;whiteSpace=wrap;connectable=0;strokeColor=inherit;overflow=hidden;fillColor=none;top=0;left=0;bottom=0;right=0;pointerEvents=1;" parent="QMc2Sg5MZYXAnYzkRClg-35" vertex="1">
          <mxGeometry width="130" height="40" as="geometry">
            <mxRectangle width="130" height="40" as="alternateBounds" />
          </mxGeometry>
        </mxCell>
        <mxCell id="QMc2Sg5MZYXAnYzkRClg-37" value="Código del departamento" style="shape=partialRectangle;html=1;whiteSpace=wrap;connectable=0;strokeColor=inherit;overflow=hidden;fillColor=none;top=0;left=0;bottom=0;right=0;pointerEvents=1;" parent="QMc2Sg5MZYXAnYzkRClg-35" vertex="1">
          <mxGeometry x="130" width="240" height="40" as="geometry">
            <mxRectangle width="240" height="40" as="alternateBounds" />
          </mxGeometry>
        </mxCell>
        <mxCell id="QMc2Sg5MZYXAnYzkRClg-38" value="Número" style="shape=partialRectangle;html=1;whiteSpace=wrap;connectable=0;strokeColor=inherit;overflow=hidden;fillColor=none;top=0;left=0;bottom=0;right=0;pointerEvents=1;" parent="QMc2Sg5MZYXAnYzkRClg-35" vertex="1">
          <mxGeometry x="370" width="110" height="40" as="geometry">
            <mxRectangle width="110" height="40" as="alternateBounds" />
          </mxGeometry>
        </mxCell>
        <mxCell id="QMc2Sg5MZYXAnYzkRClg-39" value="Clave primaria" style="shape=partialRectangle;html=1;whiteSpace=wrap;connectable=0;strokeColor=inherit;overflow=hidden;fillColor=none;top=0;left=0;bottom=0;right=0;pointerEvents=1;" parent="QMc2Sg5MZYXAnYzkRClg-35" vertex="1">
          <mxGeometry x="480" width="280" height="40" as="geometry">
            <mxRectangle width="280" height="40" as="alternateBounds" />
          </mxGeometry>
        </mxCell>
        <mxCell id="QMc2Sg5MZYXAnYzkRClg-40" style="shape=tableRow;horizontal=0;startSize=0;swimlaneHead=0;swimlaneBody=0;strokeColor=inherit;top=0;left=0;bottom=0;right=0;collapsible=0;dropTarget=0;fillColor=none;points=[[0,0.5],[1,0.5]];portConstraint=eastwest;" parent="QMc2Sg5MZYXAnYzkRClg-29" vertex="1">
          <mxGeometry y="110" width="760" height="40" as="geometry" />
        </mxCell>
        <mxCell id="QMc2Sg5MZYXAnYzkRClg-41" value="nombre" style="shape=partialRectangle;html=1;whiteSpace=wrap;connectable=0;strokeColor=inherit;overflow=hidden;fillColor=none;top=0;left=0;bottom=0;right=0;pointerEvents=1;" parent="QMc2Sg5MZYXAnYzkRClg-40" vertex="1">
          <mxGeometry width="130" height="40" as="geometry">
            <mxRectangle width="130" height="40" as="alternateBounds" />
          </mxGeometry>
        </mxCell>
        <mxCell id="QMc2Sg5MZYXAnYzkRClg-42" value="Nombre del departamento" style="shape=partialRectangle;html=1;whiteSpace=wrap;connectable=0;strokeColor=inherit;overflow=hidden;fillColor=none;top=0;left=0;bottom=0;right=0;pointerEvents=1;" parent="QMc2Sg5MZYXAnYzkRClg-40" vertex="1">
          <mxGeometry x="130" width="240" height="40" as="geometry">
            <mxRectangle width="240" height="40" as="alternateBounds" />
          </mxGeometry>
        </mxCell>
        <mxCell id="QMc2Sg5MZYXAnYzkRClg-43" value="Cadena" style="shape=partialRectangle;html=1;whiteSpace=wrap;connectable=0;strokeColor=inherit;overflow=hidden;fillColor=none;top=0;left=0;bottom=0;right=0;pointerEvents=1;" parent="QMc2Sg5MZYXAnYzkRClg-40" vertex="1">
          <mxGeometry x="370" width="110" height="40" as="geometry">
            <mxRectangle width="110" height="40" as="alternateBounds" />
          </mxGeometry>
        </mxCell>
        <mxCell id="QMc2Sg5MZYXAnYzkRClg-44" style="shape=partialRectangle;html=1;whiteSpace=wrap;connectable=0;strokeColor=inherit;overflow=hidden;fillColor=none;top=0;left=0;bottom=0;right=0;pointerEvents=1;" parent="QMc2Sg5MZYXAnYzkRClg-40" vertex="1">
          <mxGeometry x="480" width="280" height="40" as="geometry">
            <mxRectangle width="280" height="40" as="alternateBounds" />
          </mxGeometry>
        </mxCell>
        <mxCell id="QMc2Sg5MZYXAnYzkRClg-45" value="Empleado_departamento" style="shape=table;startSize=30;container=1;collapsible=0;childLayout=tableLayout;fontStyle=1" parent="1" vertex="1">
          <mxGeometry x="40" y="3560" width="760" height="190" as="geometry" />
        </mxCell>
        <mxCell id="QMc2Sg5MZYXAnYzkRClg-46" value="" style="shape=tableRow;horizontal=0;startSize=0;swimlaneHead=0;swimlaneBody=0;strokeColor=inherit;top=0;left=0;bottom=0;right=0;collapsible=0;dropTarget=0;fillColor=none;points=[[0,0.5],[1,0.5]];portConstraint=eastwest;" parent="QMc2Sg5MZYXAnYzkRClg-45" vertex="1">
          <mxGeometry y="30" width="760" height="40" as="geometry" />
        </mxCell>
        <mxCell id="QMc2Sg5MZYXAnYzkRClg-47" value="&lt;b&gt;Nombre&lt;/b&gt;" style="shape=partialRectangle;html=1;whiteSpace=wrap;connectable=0;strokeColor=inherit;overflow=hidden;fillColor=none;top=0;left=0;bottom=0;right=0;pointerEvents=1;" parent="QMc2Sg5MZYXAnYzkRClg-46" vertex="1">
          <mxGeometry width="130" height="40" as="geometry">
            <mxRectangle width="130" height="40" as="alternateBounds" />
          </mxGeometry>
        </mxCell>
        <mxCell id="QMc2Sg5MZYXAnYzkRClg-48" value="&lt;b&gt;Descripción&lt;/b&gt;" style="shape=partialRectangle;html=1;whiteSpace=wrap;connectable=0;strokeColor=inherit;overflow=hidden;fillColor=none;top=0;left=0;bottom=0;right=0;pointerEvents=1;" parent="QMc2Sg5MZYXAnYzkRClg-46" vertex="1">
          <mxGeometry x="130" width="240" height="40" as="geometry">
            <mxRectangle width="240" height="40" as="alternateBounds" />
          </mxGeometry>
        </mxCell>
        <mxCell id="QMc2Sg5MZYXAnYzkRClg-49" value="&lt;b&gt;Tipo&lt;/b&gt;" style="shape=partialRectangle;html=1;whiteSpace=wrap;connectable=0;strokeColor=inherit;overflow=hidden;fillColor=none;top=0;left=0;bottom=0;right=0;pointerEvents=1;" parent="QMc2Sg5MZYXAnYzkRClg-46" vertex="1">
          <mxGeometry x="370" width="110" height="40" as="geometry">
            <mxRectangle width="110" height="40" as="alternateBounds" />
          </mxGeometry>
        </mxCell>
        <mxCell id="QMc2Sg5MZYXAnYzkRClg-50" value="&lt;b&gt;Restricciones&lt;/b&gt;" style="shape=partialRectangle;html=1;whiteSpace=wrap;connectable=0;strokeColor=inherit;overflow=hidden;fillColor=none;top=0;left=0;bottom=0;right=0;pointerEvents=1;" parent="QMc2Sg5MZYXAnYzkRClg-46" vertex="1">
          <mxGeometry x="480" width="280" height="40" as="geometry">
            <mxRectangle width="280" height="40" as="alternateBounds" />
          </mxGeometry>
        </mxCell>
        <mxCell id="QMc2Sg5MZYXAnYzkRClg-51" value="" style="shape=tableRow;horizontal=0;startSize=0;swimlaneHead=0;swimlaneBody=0;strokeColor=inherit;top=0;left=0;bottom=0;right=0;collapsible=0;dropTarget=0;fillColor=none;points=[[0,0.5],[1,0.5]];portConstraint=eastwest;" parent="QMc2Sg5MZYXAnYzkRClg-45" vertex="1">
          <mxGeometry y="70" width="760" height="40" as="geometry" />
        </mxCell>
        <mxCell id="QMc2Sg5MZYXAnYzkRClg-52" value="DNI_empleado" style="shape=partialRectangle;html=1;whiteSpace=wrap;connectable=0;strokeColor=inherit;overflow=hidden;fillColor=none;top=0;left=0;bottom=0;right=0;pointerEvents=1;" parent="QMc2Sg5MZYXAnYzkRClg-51" vertex="1">
          <mxGeometry width="130" height="40" as="geometry">
            <mxRectangle width="130" height="40" as="alternateBounds" />
          </mxGeometry>
        </mxCell>
        <mxCell id="QMc2Sg5MZYXAnYzkRClg-53" value="DNI del empleado" style="shape=partialRectangle;html=1;whiteSpace=wrap;connectable=0;strokeColor=inherit;overflow=hidden;fillColor=none;top=0;left=0;bottom=0;right=0;pointerEvents=1;" parent="QMc2Sg5MZYXAnYzkRClg-51" vertex="1">
          <mxGeometry x="130" width="240" height="40" as="geometry">
            <mxRectangle width="240" height="40" as="alternateBounds" />
          </mxGeometry>
        </mxCell>
        <mxCell id="QMc2Sg5MZYXAnYzkRClg-54" value="Cadena" style="shape=partialRectangle;html=1;whiteSpace=wrap;connectable=0;strokeColor=inherit;overflow=hidden;fillColor=none;top=0;left=0;bottom=0;right=0;pointerEvents=1;" parent="QMc2Sg5MZYXAnYzkRClg-51" vertex="1">
          <mxGeometry x="370" width="110" height="40" as="geometry">
            <mxRectangle width="110" height="40" as="alternateBounds" />
          </mxGeometry>
        </mxCell>
        <mxCell id="QMc2Sg5MZYXAnYzkRClg-55" value="Clave primaria&lt;div&gt;Clave foránea (empleado =&amp;gt; DNI)&lt;/div&gt;" style="shape=partialRectangle;html=1;whiteSpace=wrap;connectable=0;strokeColor=inherit;overflow=hidden;fillColor=none;top=0;left=0;bottom=0;right=0;pointerEvents=1;" parent="QMc2Sg5MZYXAnYzkRClg-51" vertex="1">
          <mxGeometry x="480" width="280" height="40" as="geometry">
            <mxRectangle width="280" height="40" as="alternateBounds" />
          </mxGeometry>
        </mxCell>
        <mxCell id="QMc2Sg5MZYXAnYzkRClg-56" style="shape=tableRow;horizontal=0;startSize=0;swimlaneHead=0;swimlaneBody=0;strokeColor=inherit;top=0;left=0;bottom=0;right=0;collapsible=0;dropTarget=0;fillColor=none;points=[[0,0.5],[1,0.5]];portConstraint=eastwest;" parent="QMc2Sg5MZYXAnYzkRClg-45" vertex="1">
          <mxGeometry y="110" width="760" height="40" as="geometry" />
        </mxCell>
        <mxCell id="QMc2Sg5MZYXAnYzkRClg-57" value="codigo_departamento" style="shape=partialRectangle;html=1;whiteSpace=wrap;connectable=0;strokeColor=inherit;overflow=hidden;fillColor=none;top=0;left=0;bottom=0;right=0;pointerEvents=1;" parent="QMc2Sg5MZYXAnYzkRClg-56" vertex="1">
          <mxGeometry width="130" height="40" as="geometry">
            <mxRectangle width="130" height="40" as="alternateBounds" />
          </mxGeometry>
        </mxCell>
        <mxCell id="QMc2Sg5MZYXAnYzkRClg-58" value="Código del departamento" style="shape=partialRectangle;html=1;whiteSpace=wrap;connectable=0;strokeColor=inherit;overflow=hidden;fillColor=none;top=0;left=0;bottom=0;right=0;pointerEvents=1;" parent="QMc2Sg5MZYXAnYzkRClg-56" vertex="1">
          <mxGeometry x="130" width="240" height="40" as="geometry">
            <mxRectangle width="240" height="40" as="alternateBounds" />
          </mxGeometry>
        </mxCell>
        <mxCell id="QMc2Sg5MZYXAnYzkRClg-59" value="Número" style="shape=partialRectangle;html=1;whiteSpace=wrap;connectable=0;strokeColor=inherit;overflow=hidden;fillColor=none;top=0;left=0;bottom=0;right=0;pointerEvents=1;" parent="QMc2Sg5MZYXAnYzkRClg-56" vertex="1">
          <mxGeometry x="370" width="110" height="40" as="geometry">
            <mxRectangle width="110" height="40" as="alternateBounds" />
          </mxGeometry>
        </mxCell>
        <mxCell id="QMc2Sg5MZYXAnYzkRClg-60" value="Clave primaria&lt;div&gt;Clave foránea (departamento =&amp;gt; codigo)&lt;/div&gt;" style="shape=partialRectangle;html=1;whiteSpace=wrap;connectable=0;strokeColor=inherit;overflow=hidden;fillColor=none;top=0;left=0;bottom=0;right=0;pointerEvents=1;" parent="QMc2Sg5MZYXAnYzkRClg-56" vertex="1">
          <mxGeometry x="480" width="280" height="40" as="geometry">
            <mxRectangle width="280" height="40" as="alternateBounds" />
          </mxGeometry>
        </mxCell>
        <mxCell id="QMc2Sg5MZYXAnYzkRClg-61" style="shape=tableRow;horizontal=0;startSize=0;swimlaneHead=0;swimlaneBody=0;strokeColor=inherit;top=0;left=0;bottom=0;right=0;collapsible=0;dropTarget=0;fillColor=none;points=[[0,0.5],[1,0.5]];portConstraint=eastwest;" parent="QMc2Sg5MZYXAnYzkRClg-45" vertex="1">
          <mxGeometry y="150" width="760" height="40" as="geometry" />
        </mxCell>
        <mxCell id="QMc2Sg5MZYXAnYzkRClg-62" value="fecha_ingreso" style="shape=partialRectangle;html=1;whiteSpace=wrap;connectable=0;strokeColor=inherit;overflow=hidden;fillColor=none;top=0;left=0;bottom=0;right=0;pointerEvents=1;" parent="QMc2Sg5MZYXAnYzkRClg-61" vertex="1">
          <mxGeometry width="130" height="40" as="geometry">
            <mxRectangle width="130" height="40" as="alternateBounds" />
          </mxGeometry>
        </mxCell>
        <mxCell id="QMc2Sg5MZYXAnYzkRClg-63" value="Fecha en la que ingreso el empleado en el departamento" style="shape=partialRectangle;html=1;whiteSpace=wrap;connectable=0;strokeColor=inherit;overflow=hidden;fillColor=none;top=0;left=0;bottom=0;right=0;pointerEvents=1;" parent="QMc2Sg5MZYXAnYzkRClg-61" vertex="1">
          <mxGeometry x="130" width="240" height="40" as="geometry">
            <mxRectangle width="240" height="40" as="alternateBounds" />
          </mxGeometry>
        </mxCell>
        <mxCell id="QMc2Sg5MZYXAnYzkRClg-64" value="Fecha" style="shape=partialRectangle;html=1;whiteSpace=wrap;connectable=0;strokeColor=inherit;overflow=hidden;fillColor=none;top=0;left=0;bottom=0;right=0;pointerEvents=1;" parent="QMc2Sg5MZYXAnYzkRClg-61" vertex="1">
          <mxGeometry x="370" width="110" height="40" as="geometry">
            <mxRectangle width="110" height="40" as="alternateBounds" />
          </mxGeometry>
        </mxCell>
        <mxCell id="QMc2Sg5MZYXAnYzkRClg-65" value="Clave primaria" style="shape=partialRectangle;html=1;whiteSpace=wrap;connectable=0;strokeColor=inherit;overflow=hidden;fillColor=none;top=0;left=0;bottom=0;right=0;pointerEvents=1;" parent="QMc2Sg5MZYXAnYzkRClg-61" vertex="1">
          <mxGeometry x="480" width="280" height="40" as="geometry">
            <mxRectangle width="280" height="40" as="alternateBounds" />
          </mxGeometry>
        </mxCell>
      </root>
    </mxGraphModel>
  </diagram>
</mxfile>
